<?xml version="1.0" encoding="utf-8"?>
<svg xmlns="http://www.w3.org/2000/svg" xmlns:xlink="http://www.w3.org/1999/xlink" width="600" height="400" viewBox="0 0 2400 1600">
<defs>
  <clipPath id="clip960">
    <rect x="0" y="0" width="2400" height="1600"/>
  </clipPath>
</defs>
<path clip-path="url(#clip960)" d="
M0 1600 L2400 1600 L2400 0 L0 0  Z
  " fill="#ffffff" fill-rule="evenodd" fill-opacity="1"/>
<defs>
  <clipPath id="clip961">
    <rect x="480" y="0" width="1681" height="1600"/>
  </clipPath>
</defs>
<defs>
  <clipPath id="clip962">
    <rect x="199" y="47" width="2154" height="1397"/>
  </clipPath>
</defs>
<path clip-path="url(#clip960)" d="
M287.852 1443.01 L2352.76 1443.01 L2352.76 47.2441 L287.852 47.2441  Z
  " fill="#ffffff" fill-rule="evenodd" fill-opacity="1"/>
<defs>
  <clipPath id="clip963">
    <rect x="287" y="47" width="2066" height="1397"/>
  </clipPath>
</defs>
<polyline clip-path="url(#clip963)" style="stroke:#000000; stroke-linecap:butt; stroke-linejoin:round; stroke-width:2; stroke-opacity:0.1; fill:none" points="
  346.293,1443.01 346.293,47.2441 
  "/>
<polyline clip-path="url(#clip963)" style="stroke:#000000; stroke-linecap:butt; stroke-linejoin:round; stroke-width:2; stroke-opacity:0.1; fill:none" points="
  995.634,1443.01 995.634,47.2441 
  "/>
<polyline clip-path="url(#clip963)" style="stroke:#000000; stroke-linecap:butt; stroke-linejoin:round; stroke-width:2; stroke-opacity:0.1; fill:none" points="
  1644.97,1443.01 1644.97,47.2441 
  "/>
<polyline clip-path="url(#clip963)" style="stroke:#000000; stroke-linecap:butt; stroke-linejoin:round; stroke-width:2; stroke-opacity:0.1; fill:none" points="
  2294.32,1443.01 2294.32,47.2441 
  "/>
<polyline clip-path="url(#clip960)" style="stroke:#000000; stroke-linecap:butt; stroke-linejoin:round; stroke-width:4; stroke-opacity:1; fill:none" points="
  287.852,1443.01 2352.76,1443.01 
  "/>
<polyline clip-path="url(#clip960)" style="stroke:#000000; stroke-linecap:butt; stroke-linejoin:round; stroke-width:4; stroke-opacity:1; fill:none" points="
  346.293,1443.01 346.293,1424.11 
  "/>
<polyline clip-path="url(#clip960)" style="stroke:#000000; stroke-linecap:butt; stroke-linejoin:round; stroke-width:4; stroke-opacity:1; fill:none" points="
  995.634,1443.01 995.634,1424.11 
  "/>
<polyline clip-path="url(#clip960)" style="stroke:#000000; stroke-linecap:butt; stroke-linejoin:round; stroke-width:4; stroke-opacity:1; fill:none" points="
  1644.97,1443.01 1644.97,1424.11 
  "/>
<polyline clip-path="url(#clip960)" style="stroke:#000000; stroke-linecap:butt; stroke-linejoin:round; stroke-width:4; stroke-opacity:1; fill:none" points="
  2294.32,1443.01 2294.32,1424.11 
  "/>
<path clip-path="url(#clip960)" d="M313.943 1499.75 L321.582 1499.75 L321.582 1473.38 L313.272 1475.05 L313.272 1470.79 L321.536 1469.12 L326.212 1469.12 L326.212 1499.75 L333.851 1499.75 L333.851 1503.68 L313.943 1503.68 L313.943 1499.75 Z" fill="#000000" fill-rule="evenodd" fill-opacity="1" /><path clip-path="url(#clip960)" d="M343.295 1497.8 L348.179 1497.8 L348.179 1503.68 L343.295 1503.68 L343.295 1497.8 Z" fill="#000000" fill-rule="evenodd" fill-opacity="1" /><path clip-path="url(#clip960)" d="M358.411 1469.12 L376.767 1469.12 L376.767 1473.06 L362.693 1473.06 L362.693 1481.53 Q363.712 1481.18 364.73 1481.02 Q365.749 1480.84 366.767 1480.84 Q372.554 1480.84 375.934 1484.01 Q379.313 1487.18 379.313 1492.6 Q379.313 1498.18 375.841 1501.28 Q372.369 1504.36 366.05 1504.36 Q363.874 1504.36 361.605 1503.99 Q359.36 1503.61 356.952 1502.87 L356.952 1498.18 Q359.036 1499.31 361.258 1499.86 Q363.48 1500.42 365.957 1500.42 Q369.962 1500.42 372.299 1498.31 Q374.637 1496.21 374.637 1492.6 Q374.637 1488.99 372.299 1486.88 Q369.962 1484.77 365.957 1484.77 Q364.082 1484.77 362.207 1485.19 Q360.355 1485.61 358.411 1486.49 L358.411 1469.12 Z" fill="#000000" fill-rule="evenodd" fill-opacity="1" /><path clip-path="url(#clip960)" d="M966.872 1499.75 L983.191 1499.75 L983.191 1503.68 L961.247 1503.68 L961.247 1499.75 Q963.909 1496.99 968.492 1492.36 Q973.099 1487.71 974.279 1486.37 Q976.525 1483.85 977.404 1482.11 Q978.307 1480.35 978.307 1478.66 Q978.307 1475.91 976.363 1474.17 Q974.442 1472.43 971.34 1472.43 Q969.141 1472.43 966.687 1473.2 Q964.256 1473.96 961.479 1475.51 L961.479 1470.79 Q964.303 1469.66 966.756 1469.08 Q969.21 1468.5 971.247 1468.5 Q976.617 1468.5 979.812 1471.18 Q983.006 1473.87 983.006 1478.36 Q983.006 1480.49 982.196 1482.41 Q981.409 1484.31 979.303 1486.9 Q978.724 1487.57 975.622 1490.79 Q972.52 1493.99 966.872 1499.75 Z" fill="#000000" fill-rule="evenodd" fill-opacity="1" /><path clip-path="url(#clip960)" d="M993.006 1497.8 L997.89 1497.8 L997.89 1503.68 L993.006 1503.68 L993.006 1497.8 Z" fill="#000000" fill-rule="evenodd" fill-opacity="1" /><path clip-path="url(#clip960)" d="M1018.08 1472.2 Q1014.46 1472.2 1012.64 1475.77 Q1010.83 1479.31 1010.83 1486.44 Q1010.83 1493.55 1012.64 1497.11 Q1014.46 1500.65 1018.08 1500.65 Q1021.71 1500.65 1023.52 1497.11 Q1025.34 1493.55 1025.34 1486.44 Q1025.34 1479.31 1023.52 1475.77 Q1021.71 1472.2 1018.08 1472.2 M1018.08 1468.5 Q1023.89 1468.5 1026.94 1473.11 Q1030.02 1477.69 1030.02 1486.44 Q1030.02 1495.17 1026.94 1499.77 Q1023.89 1504.36 1018.08 1504.36 Q1012.27 1504.36 1009.19 1499.77 Q1006.13 1495.17 1006.13 1486.44 Q1006.13 1477.69 1009.19 1473.11 Q1012.27 1468.5 1018.08 1468.5 Z" fill="#000000" fill-rule="evenodd" fill-opacity="1" /><path clip-path="url(#clip960)" d="M1616.71 1499.75 L1633.03 1499.75 L1633.03 1503.68 L1611.09 1503.68 L1611.09 1499.75 Q1613.75 1496.99 1618.33 1492.36 Q1622.94 1487.71 1624.12 1486.37 Q1626.36 1483.85 1627.24 1482.11 Q1628.15 1480.35 1628.15 1478.66 Q1628.15 1475.91 1626.2 1474.17 Q1624.28 1472.43 1621.18 1472.43 Q1618.98 1472.43 1616.53 1473.2 Q1614.09 1473.96 1611.32 1475.51 L1611.32 1470.79 Q1614.14 1469.66 1616.59 1469.08 Q1619.05 1468.5 1621.09 1468.5 Q1626.46 1468.5 1629.65 1471.18 Q1632.84 1473.87 1632.84 1478.36 Q1632.84 1480.49 1632.03 1482.41 Q1631.25 1484.31 1629.14 1486.9 Q1628.56 1487.57 1625.46 1490.79 Q1622.36 1493.99 1616.71 1499.75 Z" fill="#000000" fill-rule="evenodd" fill-opacity="1" /><path clip-path="url(#clip960)" d="M1642.84 1497.8 L1647.73 1497.8 L1647.73 1503.68 L1642.84 1503.68 L1642.84 1497.8 Z" fill="#000000" fill-rule="evenodd" fill-opacity="1" /><path clip-path="url(#clip960)" d="M1657.96 1469.12 L1676.32 1469.12 L1676.32 1473.06 L1662.24 1473.06 L1662.24 1481.53 Q1663.26 1481.18 1664.28 1481.02 Q1665.3 1480.84 1666.32 1480.84 Q1672.1 1480.84 1675.48 1484.01 Q1678.86 1487.18 1678.86 1492.6 Q1678.86 1498.18 1675.39 1501.28 Q1671.92 1504.36 1665.6 1504.36 Q1663.42 1504.36 1661.15 1503.99 Q1658.91 1503.61 1656.5 1502.87 L1656.5 1498.18 Q1658.59 1499.31 1660.81 1499.86 Q1663.03 1500.42 1665.51 1500.42 Q1669.51 1500.42 1671.85 1498.31 Q1674.19 1496.21 1674.19 1492.6 Q1674.19 1488.99 1671.85 1486.88 Q1669.51 1484.77 1665.51 1484.77 Q1663.63 1484.77 1661.76 1485.19 Q1659.9 1485.61 1657.96 1486.49 L1657.96 1469.12 Z" fill="#000000" fill-rule="evenodd" fill-opacity="1" /><path clip-path="url(#clip960)" d="M2275.62 1485.05 Q2278.98 1485.77 2280.85 1488.04 Q2282.75 1490.3 2282.75 1493.64 Q2282.75 1498.75 2279.23 1501.55 Q2275.72 1504.36 2269.23 1504.36 Q2267.06 1504.36 2264.74 1503.92 Q2262.45 1503.5 2260 1502.64 L2260 1498.13 Q2261.94 1499.26 2264.26 1499.84 Q2266.57 1500.42 2269.1 1500.42 Q2273.49 1500.42 2275.79 1498.68 Q2278.1 1496.95 2278.1 1493.64 Q2278.1 1490.58 2275.95 1488.87 Q2273.82 1487.13 2270 1487.13 L2265.97 1487.13 L2265.97 1483.29 L2270.18 1483.29 Q2273.63 1483.29 2275.46 1481.93 Q2277.29 1480.54 2277.29 1477.94 Q2277.29 1475.28 2275.39 1473.87 Q2273.52 1472.43 2270 1472.43 Q2268.08 1472.43 2265.88 1472.85 Q2263.68 1473.27 2261.04 1474.15 L2261.04 1469.98 Q2263.7 1469.24 2266.02 1468.87 Q2268.35 1468.5 2270.41 1468.5 Q2275.74 1468.5 2278.84 1470.93 Q2281.94 1473.34 2281.94 1477.46 Q2281.94 1480.33 2280.3 1482.32 Q2278.66 1484.29 2275.62 1485.05 Z" fill="#000000" fill-rule="evenodd" fill-opacity="1" /><path clip-path="url(#clip960)" d="M2291.62 1497.8 L2296.5 1497.8 L2296.5 1503.68 L2291.62 1503.68 L2291.62 1497.8 Z" fill="#000000" fill-rule="evenodd" fill-opacity="1" /><path clip-path="url(#clip960)" d="M2316.69 1472.2 Q2313.08 1472.2 2311.25 1475.77 Q2309.44 1479.31 2309.44 1486.44 Q2309.44 1493.55 2311.25 1497.11 Q2313.08 1500.65 2316.69 1500.65 Q2320.32 1500.65 2322.13 1497.11 Q2323.96 1493.55 2323.96 1486.44 Q2323.96 1479.31 2322.13 1475.77 Q2320.32 1472.2 2316.69 1472.2 M2316.69 1468.5 Q2322.5 1468.5 2325.55 1473.11 Q2328.63 1477.69 2328.63 1486.44 Q2328.63 1495.17 2325.55 1499.77 Q2322.5 1504.36 2316.69 1504.36 Q2310.88 1504.36 2307.8 1499.77 Q2304.74 1495.17 2304.74 1486.44 Q2304.74 1477.69 2307.8 1473.11 Q2310.88 1468.5 2316.69 1468.5 Z" fill="#000000" fill-rule="evenodd" fill-opacity="1" /><path clip-path="url(#clip960)" d="M1338.34 1536.96 Q1338.34 1541.66 1335.95 1546.2 Q1333.6 1550.74 1329.9 1553.55 Q1326.19 1556.31 1322.43 1556.31 Q1320.17 1556.31 1318.66 1555.09 Q1317.18 1553.84 1316.37 1552.06 Q1315.76 1554.25 1314.44 1559.5 Q1313.12 1564.75 1313.12 1565.27 Q1313.12 1565.56 1313.18 1565.69 Q1313.25 1565.82 1313.54 1565.98 Q1313.83 1566.17 1314.54 1566.23 Q1315.24 1566.33 1316.44 1566.33 Q1317.05 1566.33 1317.27 1566.33 Q1317.53 1566.36 1317.76 1566.52 Q1318.01 1566.69 1318.01 1567.04 Q1318.01 1568.36 1316.82 1568.36 Q1315.76 1568.36 1313.57 1568.26 Q1311.38 1568.17 1310.29 1568.17 Q1309.35 1568.17 1307.48 1568.26 Q1305.62 1568.36 1304.75 1568.36 Q1303.88 1568.36 1303.88 1567.59 Q1303.88 1567.14 1304.01 1566.85 Q1304.1 1566.59 1304.36 1566.46 Q1304.62 1566.36 1304.84 1566.33 Q1305.04 1566.33 1305.42 1566.33 Q1306.9 1566.33 1307.55 1566.07 Q1308.19 1565.85 1308.42 1565.36 Q1308.67 1564.91 1308.96 1563.63 L1316.37 1534.25 Q1316.82 1532.29 1316.82 1530.9 Q1316.82 1529.17 1316.28 1528.52 Q1315.73 1527.88 1314.76 1527.88 Q1313.09 1527.88 1311.99 1529.87 Q1310.9 1531.87 1309.96 1535.74 Q1309.67 1536.8 1309.48 1537.02 Q1309.32 1537.25 1308.84 1537.25 Q1308.03 1537.22 1308.03 1536.57 Q1308.03 1536.41 1308.29 1535.38 Q1308.55 1534.32 1309.03 1532.77 Q1309.54 1531.19 1310.09 1530.2 Q1310.41 1529.52 1310.7 1529.07 Q1310.99 1528.62 1311.57 1527.91 Q1312.19 1527.2 1313.05 1526.81 Q1313.92 1526.43 1314.99 1526.43 Q1317.05 1526.43 1318.76 1527.65 Q1320.46 1528.88 1320.91 1531.36 Q1322.75 1529.2 1325 1527.81 Q1327.26 1526.43 1329.54 1526.43 Q1333.34 1526.43 1335.82 1529.39 Q1338.34 1532.32 1338.34 1536.96 M1333.57 1534.06 Q1333.57 1531.13 1332.44 1529.52 Q1331.35 1527.88 1329.35 1527.88 Q1326.87 1527.88 1324 1530.39 Q1321.17 1532.77 1320.59 1534.99 L1317.34 1547.91 L1317.15 1548.97 Q1317.15 1549.17 1317.24 1549.74 Q1317.37 1550.29 1317.72 1551.19 Q1318.11 1552.1 1318.63 1552.9 Q1319.17 1553.67 1320.14 1554.25 Q1321.14 1554.83 1322.36 1554.83 Q1324.33 1554.83 1326.45 1553.09 Q1328.61 1551.36 1330.22 1548.07 Q1331.22 1545.94 1332.38 1541.37 Q1333.57 1536.77 1333.57 1534.06 Z" fill="#000000" fill-rule="evenodd" fill-opacity="1" /><polyline clip-path="url(#clip963)" style="stroke:#000000; stroke-linecap:butt; stroke-linejoin:round; stroke-width:2; stroke-opacity:0.1; fill:none" points="
  287.852,1430.27 2352.76,1430.27 
  "/>
<polyline clip-path="url(#clip963)" style="stroke:#000000; stroke-linecap:butt; stroke-linejoin:round; stroke-width:2; stroke-opacity:0.1; fill:none" points="
  287.852,1201.08 2352.76,1201.08 
  "/>
<polyline clip-path="url(#clip963)" style="stroke:#000000; stroke-linecap:butt; stroke-linejoin:round; stroke-width:2; stroke-opacity:0.1; fill:none" points="
  287.852,971.901 2352.76,971.901 
  "/>
<polyline clip-path="url(#clip963)" style="stroke:#000000; stroke-linecap:butt; stroke-linejoin:round; stroke-width:2; stroke-opacity:0.1; fill:none" points="
  287.852,742.718 2352.76,742.718 
  "/>
<polyline clip-path="url(#clip963)" style="stroke:#000000; stroke-linecap:butt; stroke-linejoin:round; stroke-width:2; stroke-opacity:0.1; fill:none" points="
  287.852,513.536 2352.76,513.536 
  "/>
<polyline clip-path="url(#clip963)" style="stroke:#000000; stroke-linecap:butt; stroke-linejoin:round; stroke-width:2; stroke-opacity:0.1; fill:none" points="
  287.852,284.354 2352.76,284.354 
  "/>
<polyline clip-path="url(#clip963)" style="stroke:#000000; stroke-linecap:butt; stroke-linejoin:round; stroke-width:2; stroke-opacity:0.1; fill:none" points="
  287.852,55.1711 2352.76,55.1711 
  "/>
<polyline clip-path="url(#clip960)" style="stroke:#000000; stroke-linecap:butt; stroke-linejoin:round; stroke-width:4; stroke-opacity:1; fill:none" points="
  287.852,1443.01 287.852,47.2441 
  "/>
<polyline clip-path="url(#clip960)" style="stroke:#000000; stroke-linecap:butt; stroke-linejoin:round; stroke-width:4; stroke-opacity:1; fill:none" points="
  287.852,1430.27 306.75,1430.27 
  "/>
<polyline clip-path="url(#clip960)" style="stroke:#000000; stroke-linecap:butt; stroke-linejoin:round; stroke-width:4; stroke-opacity:1; fill:none" points="
  287.852,1201.08 306.75,1201.08 
  "/>
<polyline clip-path="url(#clip960)" style="stroke:#000000; stroke-linecap:butt; stroke-linejoin:round; stroke-width:4; stroke-opacity:1; fill:none" points="
  287.852,971.901 306.75,971.901 
  "/>
<polyline clip-path="url(#clip960)" style="stroke:#000000; stroke-linecap:butt; stroke-linejoin:round; stroke-width:4; stroke-opacity:1; fill:none" points="
  287.852,742.718 306.75,742.718 
  "/>
<polyline clip-path="url(#clip960)" style="stroke:#000000; stroke-linecap:butt; stroke-linejoin:round; stroke-width:4; stroke-opacity:1; fill:none" points="
  287.852,513.536 306.75,513.536 
  "/>
<polyline clip-path="url(#clip960)" style="stroke:#000000; stroke-linecap:butt; stroke-linejoin:round; stroke-width:4; stroke-opacity:1; fill:none" points="
  287.852,284.354 306.75,284.354 
  "/>
<polyline clip-path="url(#clip960)" style="stroke:#000000; stroke-linecap:butt; stroke-linejoin:round; stroke-width:4; stroke-opacity:1; fill:none" points="
  287.852,55.1711 306.75,55.1711 
  "/>
<path clip-path="url(#clip960)" d="M115.742 1430.72 L145.417 1430.72 L145.417 1434.65 L115.742 1434.65 L115.742 1430.72 Z" fill="#000000" fill-rule="evenodd" fill-opacity="1" /><path clip-path="url(#clip960)" d="M165.51 1416.06 Q161.899 1416.06 160.07 1419.63 Q158.265 1423.17 158.265 1430.3 Q158.265 1437.41 160.07 1440.97 Q161.899 1444.51 165.51 1444.51 Q169.144 1444.51 170.95 1440.97 Q172.778 1437.41 172.778 1430.3 Q172.778 1423.17 170.95 1419.63 Q169.144 1416.06 165.51 1416.06 M165.51 1412.36 Q171.32 1412.36 174.376 1416.97 Q177.454 1421.55 177.454 1430.3 Q177.454 1439.03 174.376 1443.63 Q171.32 1448.22 165.51 1448.22 Q159.7 1448.22 156.621 1443.63 Q153.566 1439.03 153.566 1430.3 Q153.566 1421.55 156.621 1416.97 Q159.7 1412.36 165.51 1412.36 Z" fill="#000000" fill-rule="evenodd" fill-opacity="1" /><path clip-path="url(#clip960)" d="M185.672 1441.67 L190.556 1441.67 L190.556 1447.55 L185.672 1447.55 L185.672 1441.67 Z" fill="#000000" fill-rule="evenodd" fill-opacity="1" /><path clip-path="url(#clip960)" d="M210.741 1416.06 Q207.13 1416.06 205.301 1419.63 Q203.496 1423.17 203.496 1430.3 Q203.496 1437.41 205.301 1440.97 Q207.13 1444.51 210.741 1444.51 Q214.375 1444.51 216.181 1440.97 Q218.01 1437.41 218.01 1430.3 Q218.01 1423.17 216.181 1419.63 Q214.375 1416.06 210.741 1416.06 M210.741 1412.36 Q216.551 1412.36 219.607 1416.97 Q222.686 1421.55 222.686 1430.3 Q222.686 1439.03 219.607 1443.63 Q216.551 1448.22 210.741 1448.22 Q204.931 1448.22 201.852 1443.63 Q198.797 1439.03 198.797 1430.3 Q198.797 1421.55 201.852 1416.97 Q204.931 1412.36 210.741 1412.36 Z" fill="#000000" fill-rule="evenodd" fill-opacity="1" /><path clip-path="url(#clip960)" d="M230.949 1412.99 L249.306 1412.99 L249.306 1416.92 L235.232 1416.92 L235.232 1425.39 Q236.25 1425.05 237.269 1424.88 Q238.287 1424.7 239.306 1424.7 Q245.093 1424.7 248.472 1427.87 Q251.852 1431.04 251.852 1436.46 Q251.852 1442.04 248.38 1445.14 Q244.908 1448.22 238.588 1448.22 Q236.412 1448.22 234.144 1447.85 Q231.898 1447.48 229.491 1446.74 L229.491 1442.04 Q231.574 1443.17 233.797 1443.73 Q236.019 1444.28 238.496 1444.28 Q242.5 1444.28 244.838 1442.18 Q247.176 1440.07 247.176 1436.46 Q247.176 1432.85 244.838 1430.74 Q242.5 1428.63 238.496 1428.63 Q236.621 1428.63 234.746 1429.05 Q232.894 1429.47 230.949 1430.35 L230.949 1412.99 Z" fill="#000000" fill-rule="evenodd" fill-opacity="1" /><path clip-path="url(#clip960)" d="M114.26 1201.53 L143.936 1201.53 L143.936 1205.47 L114.26 1205.47 L114.26 1201.53 Z" fill="#000000" fill-rule="evenodd" fill-opacity="1" /><path clip-path="url(#clip960)" d="M164.028 1186.88 Q160.417 1186.88 158.589 1190.45 Q156.783 1193.99 156.783 1201.12 Q156.783 1208.22 158.589 1211.79 Q160.417 1215.33 164.028 1215.33 Q167.663 1215.33 169.468 1211.79 Q171.297 1208.22 171.297 1201.12 Q171.297 1193.99 169.468 1190.45 Q167.663 1186.88 164.028 1186.88 M164.028 1183.18 Q169.839 1183.18 172.894 1187.78 Q175.973 1192.37 175.973 1201.12 Q175.973 1209.84 172.894 1214.45 Q169.839 1219.03 164.028 1219.03 Q158.218 1219.03 155.14 1214.45 Q152.084 1209.84 152.084 1201.12 Q152.084 1192.37 155.14 1187.78 Q158.218 1183.18 164.028 1183.18 Z" fill="#000000" fill-rule="evenodd" fill-opacity="1" /><path clip-path="url(#clip960)" d="M184.19 1212.48 L189.075 1212.48 L189.075 1218.36 L184.19 1218.36 L184.19 1212.48 Z" fill="#000000" fill-rule="evenodd" fill-opacity="1" /><path clip-path="url(#clip960)" d="M209.26 1186.88 Q205.649 1186.88 203.82 1190.45 Q202.014 1193.99 202.014 1201.12 Q202.014 1208.22 203.82 1211.79 Q205.649 1215.33 209.26 1215.33 Q212.894 1215.33 214.699 1211.79 Q216.528 1208.22 216.528 1201.12 Q216.528 1193.99 214.699 1190.45 Q212.894 1186.88 209.26 1186.88 M209.26 1183.18 Q215.07 1183.18 218.125 1187.78 Q221.204 1192.37 221.204 1201.12 Q221.204 1209.84 218.125 1214.45 Q215.07 1219.03 209.26 1219.03 Q203.449 1219.03 200.371 1214.45 Q197.315 1209.84 197.315 1201.12 Q197.315 1192.37 200.371 1187.78 Q203.449 1183.18 209.26 1183.18 Z" fill="#000000" fill-rule="evenodd" fill-opacity="1" /><path clip-path="url(#clip960)" d="M242.269 1187.88 L230.463 1206.33 L242.269 1206.33 L242.269 1187.88 M241.042 1183.8 L246.921 1183.8 L246.921 1206.33 L251.852 1206.33 L251.852 1210.22 L246.921 1210.22 L246.921 1218.36 L242.269 1218.36 L242.269 1210.22 L226.667 1210.22 L226.667 1205.7 L241.042 1183.8 Z" fill="#000000" fill-rule="evenodd" fill-opacity="1" /><path clip-path="url(#clip960)" d="M115.394 972.352 L145.07 972.352 L145.07 976.287 L115.394 976.287 L115.394 972.352 Z" fill="#000000" fill-rule="evenodd" fill-opacity="1" /><path clip-path="url(#clip960)" d="M165.163 957.699 Q161.552 957.699 159.723 961.264 Q157.917 964.806 157.917 971.936 Q157.917 979.042 159.723 982.607 Q161.552 986.148 165.163 986.148 Q168.797 986.148 170.602 982.607 Q172.431 979.042 172.431 971.936 Q172.431 964.806 170.602 961.264 Q168.797 957.699 165.163 957.699 M165.163 953.996 Q170.973 953.996 174.028 958.602 Q177.107 963.186 177.107 971.936 Q177.107 980.662 174.028 985.269 Q170.973 989.852 165.163 989.852 Q159.353 989.852 156.274 985.269 Q153.218 980.662 153.218 971.936 Q153.218 963.186 156.274 958.602 Q159.353 953.996 165.163 953.996 Z" fill="#000000" fill-rule="evenodd" fill-opacity="1" /><path clip-path="url(#clip960)" d="M185.325 983.301 L190.209 983.301 L190.209 989.181 L185.325 989.181 L185.325 983.301 Z" fill="#000000" fill-rule="evenodd" fill-opacity="1" /><path clip-path="url(#clip960)" d="M210.394 957.699 Q206.783 957.699 204.954 961.264 Q203.149 964.806 203.149 971.936 Q203.149 979.042 204.954 982.607 Q206.783 986.148 210.394 986.148 Q214.028 986.148 215.834 982.607 Q217.662 979.042 217.662 971.936 Q217.662 964.806 215.834 961.264 Q214.028 957.699 210.394 957.699 M210.394 953.996 Q216.204 953.996 219.26 958.602 Q222.338 963.186 222.338 971.936 Q222.338 980.662 219.26 985.269 Q216.204 989.852 210.394 989.852 Q204.584 989.852 201.505 985.269 Q198.45 980.662 198.45 971.936 Q198.45 963.186 201.505 958.602 Q204.584 953.996 210.394 953.996 Z" fill="#000000" fill-rule="evenodd" fill-opacity="1" /><path clip-path="url(#clip960)" d="M244.722 970.547 Q248.079 971.264 249.954 973.533 Q251.852 975.801 251.852 979.135 Q251.852 984.25 248.334 987.051 Q244.815 989.852 238.334 989.852 Q236.158 989.852 233.843 989.412 Q231.551 988.996 229.098 988.139 L229.098 983.625 Q231.042 984.76 233.357 985.338 Q235.672 985.917 238.195 985.917 Q242.593 985.917 244.884 984.181 Q247.199 982.445 247.199 979.135 Q247.199 976.079 245.046 974.366 Q242.917 972.63 239.097 972.63 L235.07 972.63 L235.07 968.787 L239.283 968.787 Q242.732 968.787 244.56 967.422 Q246.389 966.033 246.389 963.44 Q246.389 960.778 244.491 959.366 Q242.616 957.931 239.097 957.931 Q237.176 957.931 234.977 958.348 Q232.778 958.764 230.139 959.644 L230.139 955.477 Q232.801 954.737 235.116 954.366 Q237.454 953.996 239.514 953.996 Q244.838 953.996 247.94 956.426 Q251.042 958.834 251.042 962.954 Q251.042 965.824 249.398 967.815 Q247.755 969.783 244.722 970.547 Z" fill="#000000" fill-rule="evenodd" fill-opacity="1" /><path clip-path="url(#clip960)" d="M116.343 743.17 L146.019 743.17 L146.019 747.105 L116.343 747.105 L116.343 743.17 Z" fill="#000000" fill-rule="evenodd" fill-opacity="1" /><path clip-path="url(#clip960)" d="M166.112 728.517 Q162.501 728.517 160.672 732.082 Q158.866 735.624 158.866 742.753 Q158.866 749.86 160.672 753.424 Q162.501 756.966 166.112 756.966 Q169.746 756.966 171.552 753.424 Q173.38 749.86 173.38 742.753 Q173.38 735.624 171.552 732.082 Q169.746 728.517 166.112 728.517 M166.112 724.813 Q171.922 724.813 174.977 729.42 Q178.056 734.003 178.056 742.753 Q178.056 751.48 174.977 756.086 Q171.922 760.67 166.112 760.67 Q160.302 760.67 157.223 756.086 Q154.167 751.48 154.167 742.753 Q154.167 734.003 157.223 729.42 Q160.302 724.813 166.112 724.813 Z" fill="#000000" fill-rule="evenodd" fill-opacity="1" /><path clip-path="url(#clip960)" d="M186.274 754.119 L191.158 754.119 L191.158 759.998 L186.274 759.998 L186.274 754.119 Z" fill="#000000" fill-rule="evenodd" fill-opacity="1" /><path clip-path="url(#clip960)" d="M211.343 728.517 Q207.732 728.517 205.903 732.082 Q204.098 735.624 204.098 742.753 Q204.098 749.86 205.903 753.424 Q207.732 756.966 211.343 756.966 Q214.977 756.966 216.783 753.424 Q218.611 749.86 218.611 742.753 Q218.611 735.624 216.783 732.082 Q214.977 728.517 211.343 728.517 M211.343 724.813 Q217.153 724.813 220.209 729.42 Q223.287 734.003 223.287 742.753 Q223.287 751.48 220.209 756.086 Q217.153 760.67 211.343 760.67 Q205.533 760.67 202.454 756.086 Q199.399 751.48 199.399 742.753 Q199.399 734.003 202.454 729.42 Q205.533 724.813 211.343 724.813 Z" fill="#000000" fill-rule="evenodd" fill-opacity="1" /><path clip-path="url(#clip960)" d="M235.533 756.063 L251.852 756.063 L251.852 759.998 L229.908 759.998 L229.908 756.063 Q232.57 753.309 237.153 748.679 Q241.759 744.026 242.94 742.684 Q245.185 740.161 246.065 738.424 Q246.968 736.665 246.968 734.975 Q246.968 732.221 245.023 730.485 Q243.102 728.749 240 728.749 Q237.801 728.749 235.347 729.512 Q232.917 730.276 230.139 731.827 L230.139 727.105 Q232.963 725.971 235.417 725.392 Q237.871 724.813 239.908 724.813 Q245.278 724.813 248.472 727.499 Q251.667 730.184 251.667 734.674 Q251.667 736.804 250.857 738.725 Q250.07 740.623 247.963 743.216 Q247.384 743.887 244.283 747.105 Q241.181 750.299 235.533 756.063 Z" fill="#000000" fill-rule="evenodd" fill-opacity="1" /><path clip-path="url(#clip960)" d="M115.973 513.987 L145.649 513.987 L145.649 517.922 L115.973 517.922 L115.973 513.987 Z" fill="#000000" fill-rule="evenodd" fill-opacity="1" /><path clip-path="url(#clip960)" d="M165.741 499.335 Q162.13 499.335 160.302 502.899 Q158.496 506.441 158.496 513.571 Q158.496 520.677 160.302 524.242 Q162.13 527.784 165.741 527.784 Q169.376 527.784 171.181 524.242 Q173.01 520.677 173.01 513.571 Q173.01 506.441 171.181 502.899 Q169.376 499.335 165.741 499.335 M165.741 495.631 Q171.552 495.631 174.607 500.237 Q177.686 504.821 177.686 513.571 Q177.686 522.297 174.607 526.904 Q171.552 531.487 165.741 531.487 Q159.931 531.487 156.853 526.904 Q153.797 522.297 153.797 513.571 Q153.797 504.821 156.853 500.237 Q159.931 495.631 165.741 495.631 Z" fill="#000000" fill-rule="evenodd" fill-opacity="1" /><path clip-path="url(#clip960)" d="M185.903 524.936 L190.788 524.936 L190.788 530.816 L185.903 530.816 L185.903 524.936 Z" fill="#000000" fill-rule="evenodd" fill-opacity="1" /><path clip-path="url(#clip960)" d="M210.973 499.335 Q207.362 499.335 205.533 502.899 Q203.727 506.441 203.727 513.571 Q203.727 520.677 205.533 524.242 Q207.362 527.784 210.973 527.784 Q214.607 527.784 216.412 524.242 Q218.241 520.677 218.241 513.571 Q218.241 506.441 216.412 502.899 Q214.607 499.335 210.973 499.335 M210.973 495.631 Q216.783 495.631 219.838 500.237 Q222.917 504.821 222.917 513.571 Q222.917 522.297 219.838 526.904 Q216.783 531.487 210.973 531.487 Q205.162 531.487 202.084 526.904 Q199.028 522.297 199.028 513.571 Q199.028 504.821 202.084 500.237 Q205.162 495.631 210.973 495.631 Z" fill="#000000" fill-rule="evenodd" fill-opacity="1" /><path clip-path="url(#clip960)" d="M231.945 526.881 L239.584 526.881 L239.584 500.515 L231.273 502.182 L231.273 497.923 L239.537 496.256 L244.213 496.256 L244.213 526.881 L251.852 526.881 L251.852 530.816 L231.945 530.816 L231.945 526.881 Z" fill="#000000" fill-rule="evenodd" fill-opacity="1" /><path clip-path="url(#clip960)" d="M164.515 270.152 Q160.903 270.152 159.075 273.717 Q157.269 277.259 157.269 284.388 Q157.269 291.495 159.075 295.059 Q160.903 298.601 164.515 298.601 Q168.149 298.601 169.954 295.059 Q171.783 291.495 171.783 284.388 Q171.783 277.259 169.954 273.717 Q168.149 270.152 164.515 270.152 M164.515 266.449 Q170.325 266.449 173.38 271.055 Q176.459 275.638 176.459 284.388 Q176.459 293.115 173.38 297.721 Q170.325 302.305 164.515 302.305 Q158.704 302.305 155.626 297.721 Q152.57 293.115 152.57 284.388 Q152.57 275.638 155.626 271.055 Q158.704 266.449 164.515 266.449 Z" fill="#000000" fill-rule="evenodd" fill-opacity="1" /><path clip-path="url(#clip960)" d="M184.676 295.754 L189.561 295.754 L189.561 301.634 L184.676 301.634 L184.676 295.754 Z" fill="#000000" fill-rule="evenodd" fill-opacity="1" /><path clip-path="url(#clip960)" d="M209.746 270.152 Q206.135 270.152 204.306 273.717 Q202.5 277.259 202.5 284.388 Q202.5 291.495 204.306 295.059 Q206.135 298.601 209.746 298.601 Q213.38 298.601 215.186 295.059 Q217.014 291.495 217.014 284.388 Q217.014 277.259 215.186 273.717 Q213.38 270.152 209.746 270.152 M209.746 266.449 Q215.556 266.449 218.611 271.055 Q221.69 275.638 221.69 284.388 Q221.69 293.115 218.611 297.721 Q215.556 302.305 209.746 302.305 Q203.936 302.305 200.857 297.721 Q197.801 293.115 197.801 284.388 Q197.801 275.638 200.857 271.055 Q203.936 266.449 209.746 266.449 Z" fill="#000000" fill-rule="evenodd" fill-opacity="1" /><path clip-path="url(#clip960)" d="M239.908 270.152 Q236.297 270.152 234.468 273.717 Q232.662 277.259 232.662 284.388 Q232.662 291.495 234.468 295.059 Q236.297 298.601 239.908 298.601 Q243.542 298.601 245.347 295.059 Q247.176 291.495 247.176 284.388 Q247.176 277.259 245.347 273.717 Q243.542 270.152 239.908 270.152 M239.908 266.449 Q245.718 266.449 248.773 271.055 Q251.852 275.638 251.852 284.388 Q251.852 293.115 248.773 297.721 Q245.718 302.305 239.908 302.305 Q234.097 302.305 231.019 297.721 Q227.963 293.115 227.963 284.388 Q227.963 275.638 231.019 271.055 Q234.097 266.449 239.908 266.449 Z" fill="#000000" fill-rule="evenodd" fill-opacity="1" /><path clip-path="url(#clip960)" d="M165.741 40.9698 Q162.13 40.9698 160.302 44.5345 Q158.496 48.0762 158.496 55.2058 Q158.496 62.3122 160.302 65.877 Q162.13 69.4187 165.741 69.4187 Q169.376 69.4187 171.181 65.877 Q173.01 62.3122 173.01 55.2058 Q173.01 48.0762 171.181 44.5345 Q169.376 40.9698 165.741 40.9698 M165.741 37.2661 Q171.552 37.2661 174.607 41.8725 Q177.686 46.4558 177.686 55.2058 Q177.686 63.9326 174.607 68.5391 Q171.552 73.1224 165.741 73.1224 Q159.931 73.1224 156.853 68.5391 Q153.797 63.9326 153.797 55.2058 Q153.797 46.4558 156.853 41.8725 Q159.931 37.2661 165.741 37.2661 Z" fill="#000000" fill-rule="evenodd" fill-opacity="1" /><path clip-path="url(#clip960)" d="M185.903 66.5715 L190.788 66.5715 L190.788 72.4511 L185.903 72.4511 L185.903 66.5715 Z" fill="#000000" fill-rule="evenodd" fill-opacity="1" /><path clip-path="url(#clip960)" d="M210.973 40.9698 Q207.362 40.9698 205.533 44.5345 Q203.727 48.0762 203.727 55.2058 Q203.727 62.3122 205.533 65.877 Q207.362 69.4187 210.973 69.4187 Q214.607 69.4187 216.412 65.877 Q218.241 62.3122 218.241 55.2058 Q218.241 48.0762 216.412 44.5345 Q214.607 40.9698 210.973 40.9698 M210.973 37.2661 Q216.783 37.2661 219.838 41.8725 Q222.917 46.4558 222.917 55.2058 Q222.917 63.9326 219.838 68.5391 Q216.783 73.1224 210.973 73.1224 Q205.162 73.1224 202.084 68.5391 Q199.028 63.9326 199.028 55.2058 Q199.028 46.4558 202.084 41.8725 Q205.162 37.2661 210.973 37.2661 Z" fill="#000000" fill-rule="evenodd" fill-opacity="1" /><path clip-path="url(#clip960)" d="M231.945 68.5159 L239.584 68.5159 L239.584 42.1503 L231.273 43.817 L231.273 39.5577 L239.537 37.8911 L244.213 37.8911 L244.213 68.5159 L251.852 68.5159 L251.852 72.4511 L231.945 72.4511 L231.945 68.5159 Z" fill="#000000" fill-rule="evenodd" fill-opacity="1" /><path clip-path="url(#clip960)" d="M44.7161 942.974 L47.5806 942.974 L47.5806 969.901 Q53.6281 969.519 56.8109 966.273 Q59.9619 962.995 59.9619 957.17 Q59.9619 953.796 59.1344 950.645 Q58.3069 947.462 56.6518 944.343 L62.1899 944.343 Q63.5267 947.494 64.227 950.804 Q64.9272 954.114 64.9272 957.52 Q64.9272 966.05 59.9619 971.047 Q54.9967 976.012 46.5303 976.012 Q37.7774 976.012 32.6531 971.302 Q27.4968 966.559 27.4968 958.539 Q27.4968 951.345 32.1438 947.176 Q36.7589 942.974 44.7161 942.974 M42.9973 948.831 Q38.1912 948.894 35.3266 951.536 Q32.4621 954.146 32.4621 958.475 Q32.4621 963.376 35.2312 966.337 Q38.0002 969.265 43.0292 969.71 L42.9973 948.831 Z" fill="#000000" fill-rule="evenodd" fill-opacity="1" /><path clip-path="url(#clip960)" d="M29.4065 910.637 L34.9447 910.637 Q33.6716 913.119 33.035 915.793 Q32.3984 918.466 32.3984 921.331 Q32.3984 925.691 33.7352 927.888 Q35.072 930.052 37.7456 930.052 Q39.7826 930.052 40.9603 928.492 Q42.1061 926.933 43.1565 922.222 L43.6021 920.217 Q44.9389 913.979 47.3897 911.369 Q49.8086 908.727 54.1691 908.727 Q59.1344 908.727 62.0308 912.674 Q64.9272 916.589 64.9272 923.463 Q64.9272 926.328 64.3543 929.447 Q63.8132 932.535 62.6992 935.972 L56.6518 935.972 Q58.3387 932.726 59.198 929.575 Q60.0256 926.424 60.0256 923.336 Q60.0256 919.198 58.6251 916.97 Q57.1929 914.742 54.6147 914.742 Q52.2276 914.742 50.9545 916.366 Q49.6813 917.957 48.5037 923.4 L48.0262 925.437 Q46.8804 930.88 44.5251 933.299 Q42.138 935.717 38.0002 935.717 Q32.9713 935.717 30.2341 932.153 Q27.4968 928.588 27.4968 922.031 Q27.4968 918.785 27.9743 915.92 Q28.4517 913.056 29.4065 910.637 Z" fill="#000000" fill-rule="evenodd" fill-opacity="1" /><path clip-path="url(#clip960)" d="M18.2347 893.608 L28.3562 893.608 L28.3562 881.545 L32.9077 881.545 L32.9077 893.608 L52.2594 893.608 Q56.6199 893.608 57.8613 892.431 Q59.1026 891.221 59.1026 887.561 L59.1026 881.545 L64.0042 881.545 L64.0042 887.561 Q64.0042 894.34 61.4897 896.918 Q58.9434 899.497 52.2594 899.497 L32.9077 899.497 L32.9077 903.793 L28.3562 903.793 L28.3562 899.497 L18.2347 899.497 L18.2347 893.608 Z" fill="#000000" fill-rule="evenodd" fill-opacity="1" /><path clip-path="url(#clip960)" d="M28.3562 873.843 L28.3562 867.986 L64.0042 867.986 L64.0042 873.843 L28.3562 873.843 M14.479 873.843 L14.479 867.986 L21.895 867.986 L21.895 873.843 L14.479 873.843 Z" fill="#000000" fill-rule="evenodd" fill-opacity="1" /><path clip-path="url(#clip960)" d="M35.1993 827.978 Q31.2526 825.782 29.3747 822.726 Q27.4968 819.671 27.4968 815.533 Q27.4968 809.963 31.4117 806.939 Q35.2948 803.916 42.4881 803.916 L64.0042 803.916 L64.0042 809.804 L42.679 809.804 Q37.5546 809.804 35.072 811.618 Q32.5894 813.432 32.5894 817.156 Q32.5894 821.708 35.6131 824.349 Q38.6368 826.991 43.8567 826.991 L64.0042 826.991 L64.0042 832.879 L42.679 832.879 Q37.5228 832.879 35.072 834.694 Q32.5894 836.508 32.5894 840.296 Q32.5894 844.783 35.6449 847.425 Q38.6686 850.067 43.8567 850.067 L64.0042 850.067 L64.0042 855.955 L28.3562 855.955 L28.3562 850.067 L33.8944 850.067 Q30.616 848.062 29.0564 845.261 Q27.4968 842.46 27.4968 838.609 Q27.4968 834.726 29.4702 832.02 Q31.4436 829.283 35.1993 827.978 Z" fill="#000000" fill-rule="evenodd" fill-opacity="1" /><path clip-path="url(#clip960)" d="M46.0847 776.034 Q46.0847 783.131 47.7079 785.869 Q49.3312 788.606 53.2461 788.606 Q56.3653 788.606 58.2114 786.569 Q60.0256 784.5 60.0256 780.967 Q60.0256 776.097 56.5881 773.169 Q53.1188 770.209 47.3897 770.209 L46.0847 770.209 L46.0847 776.034 M43.6657 764.353 L64.0042 764.353 L64.0042 770.209 L58.5933 770.209 Q61.8398 772.214 63.3994 775.206 Q64.9272 778.198 64.9272 782.527 Q64.9272 788.001 61.8716 791.248 Q58.7843 794.462 53.6281 794.462 Q47.6125 794.462 44.5569 790.452 Q41.5014 786.41 41.5014 778.421 L41.5014 770.209 L40.9285 770.209 Q36.8862 770.209 34.6901 772.883 Q32.4621 775.524 32.4621 780.331 Q32.4621 783.386 33.1941 786.283 Q33.9262 789.179 35.3903 791.853 L29.9795 791.853 Q28.7381 788.638 28.1334 785.614 Q27.4968 782.59 27.4968 779.726 Q27.4968 771.992 31.5072 768.172 Q35.5176 764.353 43.6657 764.353 Z" fill="#000000" fill-rule="evenodd" fill-opacity="1" /><path clip-path="url(#clip960)" d="M18.2347 746.497 L28.3562 746.497 L28.3562 734.434 L32.9077 734.434 L32.9077 746.497 L52.2594 746.497 Q56.6199 746.497 57.8613 745.319 Q59.1026 744.11 59.1026 740.449 L59.1026 734.434 L64.0042 734.434 L64.0042 740.449 Q64.0042 747.229 61.4897 749.807 Q58.9434 752.385 52.2594 752.385 L32.9077 752.385 L32.9077 756.682 L28.3562 756.682 L28.3562 752.385 L18.2347 752.385 L18.2347 746.497 Z" fill="#000000" fill-rule="evenodd" fill-opacity="1" /><path clip-path="url(#clip960)" d="M44.7161 696.24 L47.5806 696.24 L47.5806 723.167 Q53.6281 722.785 56.8109 719.538 Q59.9619 716.26 59.9619 710.435 Q59.9619 707.061 59.1344 703.91 Q58.3069 700.727 56.6518 697.608 L62.1899 697.608 Q63.5267 700.759 64.227 704.069 Q64.9272 707.38 64.9272 710.785 Q64.9272 719.315 59.9619 724.312 Q54.9967 729.278 46.5303 729.278 Q37.7774 729.278 32.6531 724.567 Q27.4968 719.825 27.4968 711.804 Q27.4968 704.61 32.1438 700.441 Q36.7589 696.24 44.7161 696.24 M42.9973 702.096 Q38.1912 702.16 35.3266 704.801 Q32.4621 707.411 32.4621 711.74 Q32.4621 716.642 35.2312 719.602 Q38.0002 722.53 43.0292 722.976 L42.9973 702.096 Z" fill="#000000" fill-rule="evenodd" fill-opacity="1" /><path clip-path="url(#clip960)" d="M44.7161 635.415 L47.5806 635.415 L47.5806 662.342 Q53.6281 661.96 56.8109 658.714 Q59.9619 655.435 59.9619 649.611 Q59.9619 646.237 59.1344 643.086 Q58.3069 639.903 56.6518 636.784 L62.1899 636.784 Q63.5267 639.935 64.227 643.245 Q64.9272 646.555 64.9272 649.961 Q64.9272 658.491 59.9619 663.488 Q54.9967 668.453 46.5303 668.453 Q37.7774 668.453 32.6531 663.743 Q27.4968 659 27.4968 650.979 Q27.4968 643.786 32.1438 639.617 Q36.7589 635.415 44.7161 635.415 M42.9973 641.272 Q38.1912 641.335 35.3266 643.977 Q32.4621 646.587 32.4621 650.916 Q32.4621 655.817 35.2312 658.777 Q38.0002 661.706 43.0292 662.151 L42.9973 641.272 Z" fill="#000000" fill-rule="evenodd" fill-opacity="1" /><path clip-path="url(#clip960)" d="M33.8307 605.146 Q33.2578 606.133 33.0032 607.311 Q32.7167 608.456 32.7167 609.857 Q32.7167 614.822 35.9632 617.496 Q39.1779 620.138 45.2253 620.138 L64.0042 620.138 L64.0042 626.026 L28.3562 626.026 L28.3562 620.138 L33.8944 620.138 Q30.6479 618.292 29.0883 615.331 Q27.4968 612.371 27.4968 608.138 Q27.4968 607.533 27.5923 606.801 Q27.656 606.069 27.8151 605.178 L33.8307 605.146 Z" fill="#000000" fill-rule="evenodd" fill-opacity="1" /><path clip-path="url(#clip960)" d="M33.8307 579.493 Q33.2578 580.479 33.0032 581.657 Q32.7167 582.803 32.7167 584.203 Q32.7167 589.168 35.9632 591.842 Q39.1779 594.484 45.2253 594.484 L64.0042 594.484 L64.0042 600.372 L28.3562 600.372 L28.3562 594.484 L33.8944 594.484 Q30.6479 592.638 29.0883 589.678 Q27.4968 586.718 27.4968 582.484 Q27.4968 581.88 27.5923 581.148 Q27.656 580.416 27.8151 579.524 L33.8307 579.493 Z" fill="#000000" fill-rule="evenodd" fill-opacity="1" /><path clip-path="url(#clip960)" d="M32.4621 560.968 Q32.4621 565.679 36.1542 568.416 Q39.8145 571.153 46.212 571.153 Q52.6095 571.153 56.3017 568.448 Q59.9619 565.711 59.9619 560.968 Q59.9619 556.29 56.2698 553.552 Q52.5777 550.815 46.212 550.815 Q39.8781 550.815 36.186 553.552 Q32.4621 556.29 32.4621 560.968 M27.4968 560.968 Q27.4968 553.329 32.4621 548.969 Q37.4273 544.608 46.212 544.608 Q54.9649 544.608 59.9619 548.969 Q64.9272 553.329 64.9272 560.968 Q64.9272 568.639 59.9619 573 Q54.9649 577.328 46.212 577.328 Q37.4273 577.328 32.4621 573 Q27.4968 568.639 27.4968 560.968 Z" fill="#000000" fill-rule="evenodd" fill-opacity="1" /><path clip-path="url(#clip960)" d="M33.8307 514.244 Q33.2578 515.231 33.0032 516.408 Q32.7167 517.554 32.7167 518.955 Q32.7167 523.92 35.9632 526.594 Q39.1779 529.235 45.2253 529.235 L64.0042 529.235 L64.0042 535.124 L28.3562 535.124 L28.3562 529.235 L33.8944 529.235 Q30.6479 527.389 29.0883 524.429 Q27.4968 521.469 27.4968 517.236 Q27.4968 516.631 27.5923 515.899 Q27.656 515.167 27.8151 514.276 L33.8307 514.244 Z" fill="#000000" fill-rule="evenodd" fill-opacity="1" /><polyline clip-path="url(#clip963)" style="stroke:#009af9; stroke-linecap:butt; stroke-linejoin:round; stroke-width:4; stroke-opacity:1; fill:none" points="
  346.293,284.354 476.161,284.354 606.029,284.354 735.897,284.354 865.765,284.354 995.634,284.354 1125.5,284.354 1255.37,284.354 1385.24,284.354 1515.11,284.354 
  1644.97,284.354 1774.84,284.354 1904.71,284.354 2034.58,284.354 2164.45,284.354 2294.32,284.354 
  "/>
<path clip-path="url(#clip963)" d="
M346.293 238.602 L476.161 236.006 L606.029 232.402 L735.897 227.89 L865.765 222.507 L995.634 216.25 L1125.5 209.076 L1255.37 200.927 L1385.24 191.717 L1515.11 181.346 
  L1644.97 169.693 L1774.84 156.623 L1904.71 141.978 L2034.58 125.586 L2164.45 107.25 L2294.32 86.747 L2294.32 284.354 L2164.45 284.354 L2034.58 284.354 L1904.71 284.354 
  L1774.84 284.354 L1644.97 284.354 L1515.11 284.354 L1385.24 284.354 L1255.37 284.354 L1125.5 284.354 L995.634 284.354 L865.765 284.354 L735.897 284.354 L606.029 284.354 
  L476.161 284.354 L346.293 284.354  Z
  " fill="#333333" fill-rule="evenodd" fill-opacity="0.2"/>
<circle clip-path="url(#clip963)" cx="346.293" cy="238.602" r="10" fill="#e26f46" fill-rule="evenodd" fill-opacity="1" stroke="#000000" stroke-opacity="1" stroke-width="0"/>
<circle clip-path="url(#clip963)" cx="476.161" cy="236.006" r="10" fill="#e26f46" fill-rule="evenodd" fill-opacity="1" stroke="#000000" stroke-opacity="1" stroke-width="0"/>
<circle clip-path="url(#clip963)" cx="606.029" cy="232.402" r="10" fill="#e26f46" fill-rule="evenodd" fill-opacity="1" stroke="#000000" stroke-opacity="1" stroke-width="0"/>
<circle clip-path="url(#clip963)" cx="735.897" cy="227.89" r="10" fill="#e26f46" fill-rule="evenodd" fill-opacity="1" stroke="#000000" stroke-opacity="1" stroke-width="0"/>
<circle clip-path="url(#clip963)" cx="865.765" cy="222.507" r="10" fill="#e26f46" fill-rule="evenodd" fill-opacity="1" stroke="#000000" stroke-opacity="1" stroke-width="0"/>
<circle clip-path="url(#clip963)" cx="995.634" cy="216.25" r="10" fill="#e26f46" fill-rule="evenodd" fill-opacity="1" stroke="#000000" stroke-opacity="1" stroke-width="0"/>
<circle clip-path="url(#clip963)" cx="1125.5" cy="209.076" r="10" fill="#e26f46" fill-rule="evenodd" fill-opacity="1" stroke="#000000" stroke-opacity="1" stroke-width="0"/>
<circle clip-path="url(#clip963)" cx="1255.37" cy="200.927" r="10" fill="#e26f46" fill-rule="evenodd" fill-opacity="1" stroke="#000000" stroke-opacity="1" stroke-width="0"/>
<circle clip-path="url(#clip963)" cx="1385.24" cy="191.717" r="10" fill="#e26f46" fill-rule="evenodd" fill-opacity="1" stroke="#000000" stroke-opacity="1" stroke-width="0"/>
<circle clip-path="url(#clip963)" cx="1515.11" cy="181.346" r="10" fill="#e26f46" fill-rule="evenodd" fill-opacity="1" stroke="#000000" stroke-opacity="1" stroke-width="0"/>
<circle clip-path="url(#clip963)" cx="1644.97" cy="169.693" r="10" fill="#e26f46" fill-rule="evenodd" fill-opacity="1" stroke="#000000" stroke-opacity="1" stroke-width="0"/>
<circle clip-path="url(#clip963)" cx="1774.84" cy="156.623" r="10" fill="#e26f46" fill-rule="evenodd" fill-opacity="1" stroke="#000000" stroke-opacity="1" stroke-width="0"/>
<circle clip-path="url(#clip963)" cx="1904.71" cy="141.978" r="10" fill="#e26f46" fill-rule="evenodd" fill-opacity="1" stroke="#000000" stroke-opacity="1" stroke-width="0"/>
<circle clip-path="url(#clip963)" cx="2034.58" cy="125.586" r="10" fill="#e26f46" fill-rule="evenodd" fill-opacity="1" stroke="#000000" stroke-opacity="1" stroke-width="0"/>
<circle clip-path="url(#clip963)" cx="2164.45" cy="107.25" r="10" fill="#e26f46" fill-rule="evenodd" fill-opacity="1" stroke="#000000" stroke-opacity="1" stroke-width="0"/>
<circle clip-path="url(#clip963)" cx="2294.32" cy="86.747" r="10" fill="#e26f46" fill-rule="evenodd" fill-opacity="1" stroke="#000000" stroke-opacity="1" stroke-width="0"/>
<path clip-path="url(#clip963)" d="
M346.293 341.762 L476.161 357.368 L606.029 375.457 L735.897 396.362 L865.765 420.449 L995.634 448.121 L1125.5 479.818 L1255.37 516.041 L1385.24 557.337 L1515.11 615.134 
  L1644.97 688.035 L1774.84 782.36 L1904.71 895.279 L2034.58 1033.71 L2164.45 1201.27 L2294.32 1403.51 L2294.32 284.354 L2164.45 284.354 L2034.58 284.354 L1904.71 284.354 
  L1774.84 284.354 L1644.97 284.354 L1515.11 284.354 L1385.24 284.354 L1255.37 284.354 L1125.5 284.354 L995.634 284.354 L865.765 284.354 L735.897 284.354 L606.029 284.354 
  L476.161 284.354 L346.293 284.354  Z
  " fill="#7f7f7f" fill-rule="evenodd" fill-opacity="0.2"/>
<circle clip-path="url(#clip963)" cx="346.293" cy="341.762" r="10" fill="#3da44d" fill-rule="evenodd" fill-opacity="1" stroke="#000000" stroke-opacity="1" stroke-width="0"/>
<circle clip-path="url(#clip963)" cx="476.161" cy="357.368" r="10" fill="#3da44d" fill-rule="evenodd" fill-opacity="1" stroke="#000000" stroke-opacity="1" stroke-width="0"/>
<circle clip-path="url(#clip963)" cx="606.029" cy="375.457" r="10" fill="#3da44d" fill-rule="evenodd" fill-opacity="1" stroke="#000000" stroke-opacity="1" stroke-width="0"/>
<circle clip-path="url(#clip963)" cx="735.897" cy="396.362" r="10" fill="#3da44d" fill-rule="evenodd" fill-opacity="1" stroke="#000000" stroke-opacity="1" stroke-width="0"/>
<circle clip-path="url(#clip963)" cx="865.765" cy="420.449" r="10" fill="#3da44d" fill-rule="evenodd" fill-opacity="1" stroke="#000000" stroke-opacity="1" stroke-width="0"/>
<circle clip-path="url(#clip963)" cx="995.634" cy="448.121" r="10" fill="#3da44d" fill-rule="evenodd" fill-opacity="1" stroke="#000000" stroke-opacity="1" stroke-width="0"/>
<circle clip-path="url(#clip963)" cx="1125.5" cy="479.818" r="10" fill="#3da44d" fill-rule="evenodd" fill-opacity="1" stroke="#000000" stroke-opacity="1" stroke-width="0"/>
<circle clip-path="url(#clip963)" cx="1255.37" cy="516.041" r="10" fill="#3da44d" fill-rule="evenodd" fill-opacity="1" stroke="#000000" stroke-opacity="1" stroke-width="0"/>
<circle clip-path="url(#clip963)" cx="1385.24" cy="557.337" r="10" fill="#3da44d" fill-rule="evenodd" fill-opacity="1" stroke="#000000" stroke-opacity="1" stroke-width="0"/>
<circle clip-path="url(#clip963)" cx="1515.11" cy="615.134" r="10" fill="#3da44d" fill-rule="evenodd" fill-opacity="1" stroke="#000000" stroke-opacity="1" stroke-width="0"/>
<circle clip-path="url(#clip963)" cx="1644.97" cy="688.035" r="10" fill="#3da44d" fill-rule="evenodd" fill-opacity="1" stroke="#000000" stroke-opacity="1" stroke-width="0"/>
<circle clip-path="url(#clip963)" cx="1774.84" cy="782.36" r="10" fill="#3da44d" fill-rule="evenodd" fill-opacity="1" stroke="#000000" stroke-opacity="1" stroke-width="0"/>
<circle clip-path="url(#clip963)" cx="1904.71" cy="895.279" r="10" fill="#3da44d" fill-rule="evenodd" fill-opacity="1" stroke="#000000" stroke-opacity="1" stroke-width="0"/>
<circle clip-path="url(#clip963)" cx="2034.58" cy="1033.71" r="10" fill="#3da44d" fill-rule="evenodd" fill-opacity="1" stroke="#000000" stroke-opacity="1" stroke-width="0"/>
<circle clip-path="url(#clip963)" cx="2164.45" cy="1201.27" r="10" fill="#3da44d" fill-rule="evenodd" fill-opacity="1" stroke="#000000" stroke-opacity="1" stroke-width="0"/>
<circle clip-path="url(#clip963)" cx="2294.32" cy="1403.51" r="10" fill="#3da44d" fill-rule="evenodd" fill-opacity="1" stroke="#000000" stroke-opacity="1" stroke-width="0"/>
<path clip-path="url(#clip960)" d="
M648.38 1396.49 L1366.19 1396.49 L1366.19 1189.13 L648.38 1189.13  Z
  " fill="#ffffff" fill-rule="evenodd" fill-opacity="1"/>
<polyline clip-path="url(#clip960)" style="stroke:#000000; stroke-linecap:butt; stroke-linejoin:round; stroke-width:4; stroke-opacity:1; fill:none" points="
  648.38,1396.49 1366.19,1396.49 1366.19,1189.13 648.38,1189.13 648.38,1396.49 
  "/>
<polyline clip-path="url(#clip960)" style="stroke:#009af9; stroke-linecap:butt; stroke-linejoin:round; stroke-width:4; stroke-opacity:1; fill:none" points="
  671.323,1240.97 808.984,1240.97 
  "/>
<path clip-path="url(#clip960)" d="M855.955 1244.22 L855.955 1246.3 L836.371 1246.3 Q836.649 1250.7 839.01 1253.02 Q841.394 1255.31 845.631 1255.31 Q848.084 1255.31 850.376 1254.71 Q852.691 1254.1 854.959 1252.9 L854.959 1256.93 Q852.668 1257.9 850.26 1258.41 Q847.853 1258.92 845.376 1258.92 Q839.172 1258.92 835.538 1255.31 Q831.927 1251.7 831.927 1245.54 Q831.927 1239.17 835.353 1235.45 Q838.802 1231.7 844.635 1231.7 Q849.867 1231.7 852.899 1235.08 Q855.955 1238.43 855.955 1244.22 M851.695 1242.97 Q851.649 1239.47 849.728 1237.39 Q847.83 1235.31 844.682 1235.31 Q841.117 1235.31 838.964 1237.32 Q836.834 1239.33 836.51 1242.99 L851.695 1242.97 Z" fill="#000000" fill-rule="evenodd" fill-opacity="1" /><path clip-path="url(#clip960)" d="M883.663 1232.32 L874.288 1244.94 L884.149 1258.25 L879.126 1258.25 L871.58 1248.06 L864.033 1258.25 L859.01 1258.25 L869.08 1244.68 L859.867 1232.32 L864.89 1232.32 L871.765 1241.56 L878.64 1232.32 L883.663 1232.32 Z" fill="#000000" fill-rule="evenodd" fill-opacity="1" /><path clip-path="url(#clip960)" d="M901.95 1245.21 Q896.788 1245.21 894.797 1246.39 Q892.806 1247.58 892.806 1250.42 Q892.806 1252.69 894.288 1254.03 Q895.792 1255.35 898.362 1255.35 Q901.903 1255.35 904.033 1252.85 Q906.186 1250.33 906.186 1246.16 L906.186 1245.21 L901.95 1245.21 M910.445 1243.46 L910.445 1258.25 L906.186 1258.25 L906.186 1254.31 Q904.727 1256.67 902.552 1257.81 Q900.376 1258.92 897.228 1258.92 Q893.246 1258.92 890.885 1256.7 Q888.547 1254.45 888.547 1250.7 Q888.547 1246.33 891.464 1244.1 Q894.403 1241.88 900.214 1241.88 L906.186 1241.88 L906.186 1241.46 Q906.186 1238.52 904.241 1236.93 Q902.32 1235.31 898.825 1235.31 Q896.603 1235.31 894.496 1235.84 Q892.39 1236.37 890.445 1237.44 L890.445 1233.5 Q892.783 1232.6 894.982 1232.16 Q897.181 1231.7 899.265 1231.7 Q904.89 1231.7 907.667 1234.61 Q910.445 1237.53 910.445 1243.46 Z" fill="#000000" fill-rule="evenodd" fill-opacity="1" /><path clip-path="url(#clip960)" d="M937.875 1233.32 L937.875 1237.3 Q936.07 1236.3 934.241 1235.82 Q932.436 1235.31 930.584 1235.31 Q926.44 1235.31 924.149 1237.95 Q921.857 1240.56 921.857 1245.31 Q921.857 1250.05 924.149 1252.69 Q926.44 1255.31 930.584 1255.31 Q932.436 1255.31 934.241 1254.82 Q936.07 1254.31 937.875 1253.32 L937.875 1257.25 Q936.093 1258.08 934.172 1258.5 Q932.274 1258.92 930.121 1258.92 Q924.264 1258.92 920.815 1255.24 Q917.366 1251.56 917.366 1245.31 Q917.366 1238.96 920.839 1235.33 Q924.334 1231.7 930.399 1231.7 Q932.366 1231.7 934.241 1232.11 Q936.116 1232.51 937.875 1233.32 Z" fill="#000000" fill-rule="evenodd" fill-opacity="1" /><path clip-path="url(#clip960)" d="M949.496 1224.96 L949.496 1232.32 L958.269 1232.32 L958.269 1235.63 L949.496 1235.63 L949.496 1249.71 Q949.496 1252.88 950.352 1253.78 Q951.232 1254.68 953.894 1254.68 L958.269 1254.68 L958.269 1258.25 L953.894 1258.25 Q948.963 1258.25 947.088 1256.42 Q945.213 1254.57 945.213 1249.71 L945.213 1235.63 L942.088 1235.63 L942.088 1232.32 L945.213 1232.32 L945.213 1224.96 L949.496 1224.96 Z" fill="#000000" fill-rule="evenodd" fill-opacity="1" /><path clip-path="url(#clip960)" d="M975.885 1232.32 L980.398 1232.32 L988.5 1254.08 L996.602 1232.32 L1001.12 1232.32 L991.394 1258.25 L985.607 1258.25 L975.885 1232.32 Z" fill="#000000" fill-rule="evenodd" fill-opacity="1" /><path clip-path="url(#clip960)" d="M1018.78 1245.21 Q1013.62 1245.21 1011.63 1246.39 Q1009.63 1247.58 1009.63 1250.42 Q1009.63 1252.69 1011.12 1254.03 Q1012.62 1255.35 1015.19 1255.35 Q1018.73 1255.35 1020.86 1252.85 Q1023.01 1250.33 1023.01 1246.16 L1023.01 1245.21 L1018.78 1245.21 M1027.27 1243.46 L1027.27 1258.25 L1023.01 1258.25 L1023.01 1254.31 Q1021.56 1256.67 1019.38 1257.81 Q1017.2 1258.92 1014.06 1258.92 Q1010.07 1258.92 1007.71 1256.7 Q1005.38 1254.45 1005.38 1250.7 Q1005.38 1246.33 1008.29 1244.1 Q1011.23 1241.88 1017.04 1241.88 L1023.01 1241.88 L1023.01 1241.46 Q1023.01 1238.52 1021.07 1236.93 Q1019.15 1235.31 1015.65 1235.31 Q1013.43 1235.31 1011.32 1235.84 Q1009.22 1236.37 1007.27 1237.44 L1007.27 1233.5 Q1009.61 1232.6 1011.81 1232.16 Q1014.01 1231.7 1016.09 1231.7 Q1021.72 1231.7 1024.5 1234.61 Q1027.27 1237.53 1027.27 1243.46 Z" fill="#000000" fill-rule="evenodd" fill-opacity="1" /><path clip-path="url(#clip960)" d="M1036.05 1222.23 L1040.31 1222.23 L1040.31 1258.25 L1036.05 1258.25 L1036.05 1222.23 Z" fill="#000000" fill-rule="evenodd" fill-opacity="1" /><path clip-path="url(#clip960)" d="M1048.78 1248.02 L1048.78 1232.32 L1053.04 1232.32 L1053.04 1247.85 Q1053.04 1251.53 1054.47 1253.39 Q1055.91 1255.21 1058.78 1255.21 Q1062.23 1255.21 1064.22 1253.02 Q1066.23 1250.82 1066.23 1247.02 L1066.23 1232.32 L1070.49 1232.32 L1070.49 1258.25 L1066.23 1258.25 L1066.23 1254.27 Q1064.68 1256.63 1062.62 1257.78 Q1060.58 1258.92 1057.87 1258.92 Q1053.41 1258.92 1051.09 1256.14 Q1048.78 1253.36 1048.78 1248.02 M1059.5 1231.7 L1059.5 1231.7 Z" fill="#000000" fill-rule="evenodd" fill-opacity="1" /><path clip-path="url(#clip960)" d="M1101.44 1244.22 L1101.44 1246.3 L1081.86 1246.3 Q1082.13 1250.7 1084.5 1253.02 Q1086.88 1255.31 1091.12 1255.31 Q1093.57 1255.31 1095.86 1254.71 Q1098.18 1254.1 1100.44 1252.9 L1100.44 1256.93 Q1098.15 1257.9 1095.74 1258.41 Q1093.34 1258.92 1090.86 1258.92 Q1084.66 1258.92 1081.02 1255.31 Q1077.41 1251.7 1077.41 1245.54 Q1077.41 1239.17 1080.84 1235.45 Q1084.29 1231.7 1090.12 1231.7 Q1095.35 1231.7 1098.38 1235.08 Q1101.44 1238.43 1101.44 1244.22 M1097.18 1242.97 Q1097.13 1239.47 1095.21 1237.39 Q1093.31 1235.31 1090.17 1235.31 Q1086.6 1235.31 1084.45 1237.32 Q1082.32 1239.33 1082 1242.99 L1097.18 1242.97 Z" fill="#000000" fill-rule="evenodd" fill-opacity="1" /><path clip-path="url(#clip960)" d="
M671.323 1313.54 L808.984 1313.54 L808.984 1272.07 L671.323 1272.07 L671.323 1313.54  Z
  " fill="#333333" fill-rule="evenodd" fill-opacity="0.2"/>
<circle clip-path="url(#clip960)" cx="740.153" cy="1292.81" r="23" fill="#e26f46" fill-rule="evenodd" fill-opacity="1" stroke="#000000" stroke-opacity="1" stroke-width="0"/>
<path clip-path="url(#clip960)" d="M831.927 1299.86 L831.927 1284.16 L836.186 1284.16 L836.186 1299.69 Q836.186 1303.37 837.621 1305.23 Q839.057 1307.05 841.927 1307.05 Q845.376 1307.05 847.367 1304.86 Q849.381 1302.66 849.381 1298.86 L849.381 1284.16 L853.64 1284.16 L853.64 1310.09 L849.381 1310.09 L849.381 1306.11 Q847.83 1308.47 845.769 1309.62 Q843.732 1310.76 841.024 1310.76 Q836.557 1310.76 834.242 1307.98 Q831.927 1305.2 831.927 1299.86 M842.644 1283.54 L842.644 1283.54 Z" fill="#000000" fill-rule="evenodd" fill-opacity="1" /><path clip-path="url(#clip960)" d="M866.533 1306.2 L866.533 1319.95 L862.251 1319.95 L862.251 1284.16 L866.533 1284.16 L866.533 1288.1 Q867.876 1285.78 869.913 1284.67 Q871.973 1283.54 874.82 1283.54 Q879.542 1283.54 882.482 1287.29 Q885.445 1291.04 885.445 1297.15 Q885.445 1303.26 882.482 1307.01 Q879.542 1310.76 874.82 1310.76 Q871.973 1310.76 869.913 1309.65 Q867.876 1308.51 866.533 1306.2 M881.024 1297.15 Q881.024 1292.45 879.079 1289.79 Q877.158 1287.1 873.779 1287.1 Q870.399 1287.1 868.455 1289.79 Q866.533 1292.45 866.533 1297.15 Q866.533 1301.85 868.455 1304.53 Q870.399 1307.19 873.779 1307.19 Q877.158 1307.19 879.079 1304.53 Q881.024 1301.85 881.024 1297.15 Z" fill="#000000" fill-rule="evenodd" fill-opacity="1" /><path clip-path="url(#clip960)" d="M896.626 1306.2 L896.626 1319.95 L892.343 1319.95 L892.343 1284.16 L896.626 1284.16 L896.626 1288.1 Q897.968 1285.78 900.005 1284.67 Q902.065 1283.54 904.913 1283.54 Q909.635 1283.54 912.575 1287.29 Q915.538 1291.04 915.538 1297.15 Q915.538 1303.26 912.575 1307.01 Q909.635 1310.76 904.913 1310.76 Q902.065 1310.76 900.005 1309.65 Q897.968 1308.51 896.626 1306.2 M911.116 1297.15 Q911.116 1292.45 909.172 1289.79 Q907.251 1287.1 903.871 1287.1 Q900.491 1287.1 898.547 1289.79 Q896.626 1292.45 896.626 1297.15 Q896.626 1301.85 898.547 1304.53 Q900.491 1307.19 903.871 1307.19 Q907.251 1307.19 909.172 1304.53 Q911.116 1301.85 911.116 1297.15 Z" fill="#000000" fill-rule="evenodd" fill-opacity="1" /><path clip-path="url(#clip960)" d="M944.774 1296.06 L944.774 1298.14 L925.19 1298.14 Q925.468 1302.54 927.829 1304.86 Q930.213 1307.15 934.45 1307.15 Q936.903 1307.15 939.195 1306.55 Q941.51 1305.94 943.778 1304.74 L943.778 1308.77 Q941.487 1309.74 939.079 1310.25 Q936.672 1310.76 934.195 1310.76 Q927.991 1310.76 924.357 1307.15 Q920.746 1303.54 920.746 1297.38 Q920.746 1291.01 924.172 1287.29 Q927.621 1283.54 933.454 1283.54 Q938.686 1283.54 941.718 1286.92 Q944.774 1290.27 944.774 1296.06 M940.514 1294.81 Q940.468 1291.31 938.547 1289.23 Q936.649 1287.15 933.5 1287.15 Q929.936 1287.15 927.783 1289.16 Q925.653 1291.17 925.329 1294.83 L940.514 1294.81 Z" fill="#000000" fill-rule="evenodd" fill-opacity="1" /><path clip-path="url(#clip960)" d="M966.787 1288.14 Q966.07 1287.73 965.213 1287.54 Q964.38 1287.33 963.361 1287.33 Q959.75 1287.33 957.806 1289.69 Q955.885 1292.03 955.885 1296.43 L955.885 1310.09 L951.602 1310.09 L951.602 1284.16 L955.885 1284.16 L955.885 1288.19 Q957.227 1285.83 959.38 1284.69 Q961.533 1283.54 964.611 1283.54 Q965.051 1283.54 965.584 1283.61 Q966.116 1283.65 966.764 1283.77 L966.787 1288.14 Z" fill="#000000" fill-rule="evenodd" fill-opacity="1" /><path clip-path="url(#clip960)" d="M1008.5 1296.06 L1008.5 1298.14 L988.917 1298.14 Q989.195 1302.54 991.556 1304.86 Q993.94 1307.15 998.176 1307.15 Q1000.63 1307.15 1002.92 1306.55 Q1005.24 1305.94 1007.5 1304.74 L1007.5 1308.77 Q1005.21 1309.74 1002.81 1310.25 Q1000.4 1310.76 997.921 1310.76 Q991.718 1310.76 988.084 1307.15 Q984.472 1303.54 984.472 1297.38 Q984.472 1291.01 987.898 1287.29 Q991.347 1283.54 997.181 1283.54 Q1002.41 1283.54 1005.44 1286.92 Q1008.5 1290.27 1008.5 1296.06 M1004.24 1294.81 Q1004.19 1291.31 1002.27 1289.23 Q1000.38 1287.15 997.227 1287.15 Q993.662 1287.15 991.509 1289.16 Q989.38 1291.17 989.056 1294.83 L1004.24 1294.81 Z" fill="#000000" fill-rule="evenodd" fill-opacity="1" /><path clip-path="url(#clip960)" d="M1032.02 1284.92 L1032.02 1288.95 Q1030.21 1288.03 1028.27 1287.56 Q1026.32 1287.1 1024.24 1287.1 Q1021.07 1287.1 1019.47 1288.07 Q1017.9 1289.05 1017.9 1290.99 Q1017.9 1292.47 1019.03 1293.33 Q1020.17 1294.16 1023.59 1294.92 L1025.05 1295.25 Q1029.59 1296.22 1031.49 1298 Q1033.41 1299.76 1033.41 1302.93 Q1033.41 1306.55 1030.54 1308.65 Q1027.69 1310.76 1022.69 1310.76 Q1020.61 1310.76 1018.34 1310.34 Q1016.09 1309.95 1013.59 1309.14 L1013.59 1304.74 Q1015.95 1305.97 1018.25 1306.59 Q1020.54 1307.19 1022.78 1307.19 Q1025.79 1307.19 1027.41 1306.17 Q1029.03 1305.13 1029.03 1303.26 Q1029.03 1301.52 1027.85 1300.6 Q1026.69 1299.67 1022.74 1298.81 L1021.25 1298.47 Q1017.3 1297.63 1015.54 1295.92 Q1013.78 1294.18 1013.78 1291.17 Q1013.78 1287.52 1016.37 1285.53 Q1018.96 1283.54 1023.73 1283.54 Q1026.09 1283.54 1028.18 1283.88 Q1030.26 1284.23 1032.02 1284.92 Z" fill="#000000" fill-rule="evenodd" fill-opacity="1" /><path clip-path="url(#clip960)" d="M1044.4 1276.8 L1044.4 1284.16 L1053.18 1284.16 L1053.18 1287.47 L1044.4 1287.47 L1044.4 1301.55 Q1044.4 1304.72 1045.26 1305.62 Q1046.14 1306.52 1048.8 1306.52 L1053.18 1306.52 L1053.18 1310.09 L1048.8 1310.09 Q1043.87 1310.09 1042 1308.26 Q1040.12 1306.41 1040.12 1301.55 L1040.12 1287.47 L1037 1287.47 L1037 1284.16 L1040.12 1284.16 L1040.12 1276.8 L1044.4 1276.8 Z" fill="#000000" fill-rule="evenodd" fill-opacity="1" /><path clip-path="url(#clip960)" d="M1058.78 1284.16 L1063.04 1284.16 L1063.04 1310.09 L1058.78 1310.09 L1058.78 1284.16 M1058.78 1274.07 L1063.04 1274.07 L1063.04 1279.46 L1058.78 1279.46 L1058.78 1274.07 Z" fill="#000000" fill-rule="evenodd" fill-opacity="1" /><path clip-path="url(#clip960)" d="M1092.13 1289.14 Q1093.73 1286.27 1095.95 1284.9 Q1098.18 1283.54 1101.18 1283.54 Q1105.24 1283.54 1107.43 1286.38 Q1109.63 1289.21 1109.63 1294.44 L1109.63 1310.09 L1105.35 1310.09 L1105.35 1294.58 Q1105.35 1290.85 1104.03 1289.05 Q1102.71 1287.24 1100 1287.24 Q1096.69 1287.24 1094.77 1289.44 Q1092.85 1291.64 1092.85 1295.43 L1092.85 1310.09 L1088.57 1310.09 L1088.57 1294.58 Q1088.57 1290.83 1087.25 1289.05 Q1085.93 1287.24 1083.18 1287.24 Q1079.91 1287.24 1077.99 1289.46 Q1076.07 1291.66 1076.07 1295.43 L1076.07 1310.09 L1071.79 1310.09 L1071.79 1284.16 L1076.07 1284.16 L1076.07 1288.19 Q1077.53 1285.8 1079.56 1284.67 Q1081.6 1283.54 1084.4 1283.54 Q1087.23 1283.54 1089.19 1284.97 Q1091.18 1286.41 1092.13 1289.14 Z" fill="#000000" fill-rule="evenodd" fill-opacity="1" /><path clip-path="url(#clip960)" d="M1129.91 1297.05 Q1124.75 1297.05 1122.76 1298.23 Q1120.77 1299.42 1120.77 1302.26 Q1120.77 1304.53 1122.25 1305.87 Q1123.75 1307.19 1126.32 1307.19 Q1129.87 1307.19 1131.99 1304.69 Q1134.15 1302.17 1134.15 1298 L1134.15 1297.05 L1129.91 1297.05 M1138.41 1295.3 L1138.41 1310.09 L1134.15 1310.09 L1134.15 1306.15 Q1132.69 1308.51 1130.51 1309.65 Q1128.34 1310.76 1125.19 1310.76 Q1121.21 1310.76 1118.85 1308.54 Q1116.51 1306.29 1116.51 1302.54 Q1116.51 1298.17 1119.43 1295.94 Q1122.37 1293.72 1128.18 1293.72 L1134.15 1293.72 L1134.15 1293.3 Q1134.15 1290.36 1132.2 1288.77 Q1130.28 1287.15 1126.79 1287.15 Q1124.56 1287.15 1122.46 1287.68 Q1120.35 1288.21 1118.41 1289.28 L1118.41 1285.34 Q1120.74 1284.44 1122.94 1284 Q1125.14 1283.54 1127.23 1283.54 Q1132.85 1283.54 1135.63 1286.45 Q1138.41 1289.37 1138.41 1295.3 Z" fill="#000000" fill-rule="evenodd" fill-opacity="1" /><path clip-path="url(#clip960)" d="M1151.39 1276.8 L1151.39 1284.16 L1160.17 1284.16 L1160.17 1287.47 L1151.39 1287.47 L1151.39 1301.55 Q1151.39 1304.72 1152.25 1305.62 Q1153.13 1306.52 1155.79 1306.52 L1160.17 1306.52 L1160.17 1310.09 L1155.79 1310.09 Q1150.86 1310.09 1148.99 1308.26 Q1147.11 1306.41 1147.11 1301.55 L1147.11 1287.47 L1143.99 1287.47 L1143.99 1284.16 L1147.11 1284.16 L1147.11 1276.8 L1151.39 1276.8 Z" fill="#000000" fill-rule="evenodd" fill-opacity="1" /><path clip-path="url(#clip960)" d="M1187.94 1296.06 L1187.94 1298.14 L1168.36 1298.14 Q1168.64 1302.54 1171 1304.86 Q1173.38 1307.15 1177.62 1307.15 Q1180.07 1307.15 1182.36 1306.55 Q1184.68 1305.94 1186.95 1304.74 L1186.95 1308.77 Q1184.66 1309.74 1182.25 1310.25 Q1179.84 1310.76 1177.36 1310.76 Q1171.16 1310.76 1167.53 1307.15 Q1163.92 1303.54 1163.92 1297.38 Q1163.92 1291.01 1167.34 1287.29 Q1170.79 1283.54 1176.62 1283.54 Q1181.86 1283.54 1184.89 1286.92 Q1187.94 1290.27 1187.94 1296.06 M1183.68 1294.81 Q1183.64 1291.31 1181.72 1289.23 Q1179.82 1287.15 1176.67 1287.15 Q1173.11 1287.15 1170.95 1289.16 Q1168.82 1291.17 1168.5 1294.83 L1183.68 1294.81 Z" fill="#000000" fill-rule="evenodd" fill-opacity="1" /><path clip-path="url(#clip960)" d="M1232.18 1296.06 L1232.18 1298.14 L1212.6 1298.14 Q1212.87 1302.54 1215.24 1304.86 Q1217.62 1307.15 1221.86 1307.15 Q1224.31 1307.15 1226.6 1306.55 Q1228.92 1305.94 1231.18 1304.74 L1231.18 1308.77 Q1228.89 1309.74 1226.49 1310.25 Q1224.08 1310.76 1221.6 1310.76 Q1215.4 1310.76 1211.76 1307.15 Q1208.15 1303.54 1208.15 1297.38 Q1208.15 1291.01 1211.58 1287.29 Q1215.03 1283.54 1220.86 1283.54 Q1226.09 1283.54 1229.12 1286.92 Q1232.18 1290.27 1232.18 1296.06 M1227.92 1294.81 Q1227.87 1291.31 1225.95 1289.23 Q1224.05 1287.15 1220.91 1287.15 Q1217.34 1287.15 1215.19 1289.16 Q1213.06 1291.17 1212.74 1294.83 L1227.92 1294.81 Z" fill="#000000" fill-rule="evenodd" fill-opacity="1" /><path clip-path="url(#clip960)" d="M1254.19 1288.14 Q1253.48 1287.73 1252.62 1287.54 Q1251.79 1287.33 1250.77 1287.33 Q1247.16 1287.33 1245.21 1289.69 Q1243.29 1292.03 1243.29 1296.43 L1243.29 1310.09 L1239.01 1310.09 L1239.01 1284.16 L1243.29 1284.16 L1243.29 1288.19 Q1244.63 1285.83 1246.79 1284.69 Q1248.94 1283.54 1252.02 1283.54 Q1252.46 1283.54 1252.99 1283.61 Q1253.52 1283.65 1254.17 1283.77 L1254.19 1288.14 Z" fill="#000000" fill-rule="evenodd" fill-opacity="1" /><path clip-path="url(#clip960)" d="M1272.85 1288.14 Q1272.13 1287.73 1271.28 1287.54 Q1270.44 1287.33 1269.42 1287.33 Q1265.81 1287.33 1263.87 1289.69 Q1261.95 1292.03 1261.95 1296.43 L1261.95 1310.09 L1257.67 1310.09 L1257.67 1284.16 L1261.95 1284.16 L1261.95 1288.19 Q1263.29 1285.83 1265.44 1284.69 Q1267.6 1283.54 1270.67 1283.54 Q1271.11 1283.54 1271.65 1283.61 Q1272.18 1283.65 1272.83 1283.77 L1272.85 1288.14 Z" fill="#000000" fill-rule="evenodd" fill-opacity="1" /><path clip-path="url(#clip960)" d="M1286.32 1287.15 Q1282.9 1287.15 1280.91 1289.83 Q1278.92 1292.49 1278.92 1297.15 Q1278.92 1301.8 1280.88 1304.48 Q1282.87 1307.15 1286.32 1307.15 Q1289.73 1307.15 1291.72 1304.46 Q1293.71 1301.78 1293.71 1297.15 Q1293.71 1292.54 1291.72 1289.86 Q1289.73 1287.15 1286.32 1287.15 M1286.32 1283.54 Q1291.88 1283.54 1295.05 1287.15 Q1298.22 1290.76 1298.22 1297.15 Q1298.22 1303.51 1295.05 1307.15 Q1291.88 1310.76 1286.32 1310.76 Q1280.74 1310.76 1277.57 1307.15 Q1274.42 1303.51 1274.42 1297.15 Q1274.42 1290.76 1277.57 1287.15 Q1280.74 1283.54 1286.32 1283.54 Z" fill="#000000" fill-rule="evenodd" fill-opacity="1" /><path clip-path="url(#clip960)" d="M1320.3 1288.14 Q1319.59 1287.73 1318.73 1287.54 Q1317.9 1287.33 1316.88 1287.33 Q1313.27 1287.33 1311.32 1289.69 Q1309.4 1292.03 1309.4 1296.43 L1309.4 1310.09 L1305.12 1310.09 L1305.12 1284.16 L1309.4 1284.16 L1309.4 1288.19 Q1310.74 1285.83 1312.9 1284.69 Q1315.05 1283.54 1318.13 1283.54 Q1318.57 1283.54 1319.1 1283.61 Q1319.63 1283.65 1320.28 1283.77 L1320.3 1288.14 Z" fill="#000000" fill-rule="evenodd" fill-opacity="1" /><path clip-path="url(#clip960)" d="
M671.323 1365.38 L808.984 1365.38 L808.984 1323.91 L671.323 1323.91 L671.323 1365.38  Z
  " fill="#7f7f7f" fill-rule="evenodd" fill-opacity="0.2"/>
<circle clip-path="url(#clip960)" cx="740.153" cy="1344.65" r="23" fill="#3da44d" fill-rule="evenodd" fill-opacity="1" stroke="#000000" stroke-opacity="1" stroke-width="0"/>
<path clip-path="url(#clip960)" d="M831.927 1325.91 L836.186 1325.91 L836.186 1361.93 L831.927 1361.93 L831.927 1325.91 Z" fill="#000000" fill-rule="evenodd" fill-opacity="1" /><path clip-path="url(#clip960)" d="M855.144 1338.99 Q851.719 1338.99 849.728 1341.67 Q847.737 1344.33 847.737 1348.99 Q847.737 1353.64 849.705 1356.32 Q851.695 1358.99 855.144 1358.99 Q858.547 1358.99 860.538 1356.3 Q862.529 1353.62 862.529 1348.99 Q862.529 1344.38 860.538 1341.7 Q858.547 1338.99 855.144 1338.99 M855.144 1335.38 Q860.7 1335.38 863.871 1338.99 Q867.042 1342.6 867.042 1348.99 Q867.042 1355.35 863.871 1358.99 Q860.7 1362.6 855.144 1362.6 Q849.566 1362.6 846.394 1358.99 Q843.246 1355.35 843.246 1348.99 Q843.246 1342.6 846.394 1338.99 Q849.566 1335.38 855.144 1335.38 Z" fill="#000000" fill-rule="evenodd" fill-opacity="1" /><path clip-path="url(#clip960)" d="M871.626 1336 L875.885 1336 L881.209 1356.23 L886.51 1336 L891.533 1336 L896.857 1356.23 L902.158 1336 L906.417 1336 L899.635 1361.93 L894.612 1361.93 L889.033 1340.68 L883.431 1361.93 L878.408 1361.93 L871.626 1336 Z" fill="#000000" fill-rule="evenodd" fill-opacity="1" /><path clip-path="url(#clip960)" d="M935.051 1347.9 L935.051 1349.98 L915.468 1349.98 Q915.746 1354.38 918.107 1356.7 Q920.491 1358.99 924.727 1358.99 Q927.181 1358.99 929.473 1358.39 Q931.788 1357.78 934.056 1356.58 L934.056 1360.61 Q931.764 1361.58 929.357 1362.09 Q926.95 1362.6 924.473 1362.6 Q918.269 1362.6 914.635 1358.99 Q911.024 1355.38 911.024 1349.22 Q911.024 1342.85 914.45 1339.13 Q917.899 1335.38 923.732 1335.38 Q928.963 1335.38 931.996 1338.76 Q935.051 1342.11 935.051 1347.9 M930.792 1346.65 Q930.746 1343.15 928.825 1341.07 Q926.926 1338.99 923.778 1338.99 Q920.214 1338.99 918.061 1341 Q915.931 1343.01 915.607 1346.67 L930.792 1346.65 Z" fill="#000000" fill-rule="evenodd" fill-opacity="1" /><path clip-path="url(#clip960)" d="M957.065 1339.98 Q956.348 1339.57 955.491 1339.38 Q954.658 1339.17 953.639 1339.17 Q950.028 1339.17 948.084 1341.53 Q946.162 1343.87 946.162 1348.27 L946.162 1361.93 L941.88 1361.93 L941.88 1336 L946.162 1336 L946.162 1340.03 Q947.505 1337.67 949.658 1336.53 Q951.811 1335.38 954.889 1335.38 Q955.329 1335.38 955.861 1335.45 Q956.394 1335.49 957.042 1335.61 L957.065 1339.98 Z" fill="#000000" fill-rule="evenodd" fill-opacity="1" /><path clip-path="url(#clip960)" d="M998.778 1347.9 L998.778 1349.98 L979.195 1349.98 Q979.472 1354.38 981.834 1356.7 Q984.218 1358.99 988.454 1358.99 Q990.908 1358.99 993.199 1358.39 Q995.514 1357.78 997.783 1356.58 L997.783 1360.61 Q995.491 1361.58 993.083 1362.09 Q990.676 1362.6 988.199 1362.6 Q981.996 1362.6 978.361 1358.99 Q974.75 1355.38 974.75 1349.22 Q974.75 1342.85 978.176 1339.13 Q981.625 1335.38 987.459 1335.38 Q992.69 1335.38 995.722 1338.76 Q998.778 1342.11 998.778 1347.9 M994.519 1346.65 Q994.472 1343.15 992.551 1341.07 Q990.653 1338.99 987.505 1338.99 Q983.94 1338.99 981.787 1341 Q979.658 1343.01 979.334 1346.67 L994.519 1346.65 Z" fill="#000000" fill-rule="evenodd" fill-opacity="1" /><path clip-path="url(#clip960)" d="M1022.3 1336.76 L1022.3 1340.79 Q1020.49 1339.87 1018.55 1339.4 Q1016.6 1338.94 1014.52 1338.94 Q1011.35 1338.94 1009.75 1339.91 Q1008.18 1340.89 1008.18 1342.83 Q1008.18 1344.31 1009.31 1345.17 Q1010.44 1346 1013.87 1346.76 L1015.33 1347.09 Q1019.87 1348.06 1021.76 1349.84 Q1023.69 1351.6 1023.69 1354.77 Q1023.69 1358.39 1020.81 1360.49 Q1017.97 1362.6 1012.97 1362.6 Q1010.88 1362.6 1008.62 1362.18 Q1006.37 1361.79 1003.87 1360.98 L1003.87 1356.58 Q1006.23 1357.81 1008.52 1358.43 Q1010.81 1359.03 1013.06 1359.03 Q1016.07 1359.03 1017.69 1358.01 Q1019.31 1356.97 1019.31 1355.1 Q1019.31 1353.36 1018.13 1352.44 Q1016.97 1351.51 1013.01 1350.65 L1011.53 1350.31 Q1007.57 1349.47 1005.81 1347.76 Q1004.06 1346.02 1004.06 1343.01 Q1004.06 1339.36 1006.65 1337.37 Q1009.24 1335.38 1014.01 1335.38 Q1016.37 1335.38 1018.45 1335.72 Q1020.54 1336.07 1022.3 1336.76 Z" fill="#000000" fill-rule="evenodd" fill-opacity="1" /><path clip-path="url(#clip960)" d="M1034.68 1328.64 L1034.68 1336 L1043.45 1336 L1043.45 1339.31 L1034.68 1339.31 L1034.68 1353.39 Q1034.68 1356.56 1035.54 1357.46 Q1036.42 1358.36 1039.08 1358.36 L1043.45 1358.36 L1043.45 1361.93 L1039.08 1361.93 Q1034.15 1361.93 1032.27 1360.1 Q1030.4 1358.25 1030.4 1353.39 L1030.4 1339.31 L1027.27 1339.31 L1027.27 1336 L1030.4 1336 L1030.4 1328.64 L1034.68 1328.64 Z" fill="#000000" fill-rule="evenodd" fill-opacity="1" /><path clip-path="url(#clip960)" d="M1049.06 1336 L1053.31 1336 L1053.31 1361.93 L1049.06 1361.93 L1049.06 1336 M1049.06 1325.91 L1053.31 1325.91 L1053.31 1331.3 L1049.06 1331.3 L1049.06 1325.91 Z" fill="#000000" fill-rule="evenodd" fill-opacity="1" /><path clip-path="url(#clip960)" d="M1082.41 1340.98 Q1084.01 1338.11 1086.23 1336.74 Q1088.45 1335.38 1091.46 1335.38 Q1095.51 1335.38 1097.71 1338.22 Q1099.91 1341.05 1099.91 1346.28 L1099.91 1361.93 L1095.63 1361.93 L1095.63 1346.42 Q1095.63 1342.69 1094.31 1340.89 Q1092.99 1339.08 1090.28 1339.08 Q1086.97 1339.08 1085.05 1341.28 Q1083.13 1343.48 1083.13 1347.27 L1083.13 1361.93 L1078.85 1361.93 L1078.85 1346.42 Q1078.85 1342.67 1077.53 1340.89 Q1076.21 1339.08 1073.45 1339.08 Q1070.19 1339.08 1068.27 1341.3 Q1066.35 1343.5 1066.35 1347.27 L1066.35 1361.93 L1062.06 1361.93 L1062.06 1336 L1066.35 1336 L1066.35 1340.03 Q1067.81 1337.64 1069.84 1336.51 Q1071.88 1335.38 1074.68 1335.38 Q1077.5 1335.38 1079.47 1336.81 Q1081.46 1338.25 1082.41 1340.98 Z" fill="#000000" fill-rule="evenodd" fill-opacity="1" /><path clip-path="url(#clip960)" d="M1120.19 1348.89 Q1115.03 1348.89 1113.04 1350.07 Q1111.05 1351.26 1111.05 1354.1 Q1111.05 1356.37 1112.53 1357.71 Q1114.03 1359.03 1116.6 1359.03 Q1120.14 1359.03 1122.27 1356.53 Q1124.43 1354.01 1124.43 1349.84 L1124.43 1348.89 L1120.19 1348.89 M1128.68 1347.14 L1128.68 1361.93 L1124.43 1361.93 L1124.43 1357.99 Q1122.97 1360.35 1120.79 1361.49 Q1118.62 1362.6 1115.47 1362.6 Q1111.49 1362.6 1109.12 1360.38 Q1106.79 1358.13 1106.79 1354.38 Q1106.79 1350.01 1109.7 1347.78 Q1112.64 1345.56 1118.45 1345.56 L1124.43 1345.56 L1124.43 1345.14 Q1124.43 1342.2 1122.48 1340.61 Q1120.56 1338.99 1117.06 1338.99 Q1114.84 1338.99 1112.74 1339.52 Q1110.63 1340.05 1108.68 1341.12 L1108.68 1337.18 Q1111.02 1336.28 1113.22 1335.84 Q1115.42 1335.38 1117.5 1335.38 Q1123.13 1335.38 1125.91 1338.29 Q1128.68 1341.21 1128.68 1347.14 Z" fill="#000000" fill-rule="evenodd" fill-opacity="1" /><path clip-path="url(#clip960)" d="M1141.67 1328.64 L1141.67 1336 L1150.44 1336 L1150.44 1339.31 L1141.67 1339.31 L1141.67 1353.39 Q1141.67 1356.56 1142.53 1357.46 Q1143.41 1358.36 1146.07 1358.36 L1150.44 1358.36 L1150.44 1361.93 L1146.07 1361.93 Q1141.14 1361.93 1139.26 1360.1 Q1137.39 1358.25 1137.39 1353.39 L1137.39 1339.31 L1134.26 1339.31 L1134.26 1336 L1137.39 1336 L1137.39 1328.64 L1141.67 1328.64 Z" fill="#000000" fill-rule="evenodd" fill-opacity="1" /><path clip-path="url(#clip960)" d="M1178.22 1347.9 L1178.22 1349.98 L1158.64 1349.98 Q1158.92 1354.38 1161.28 1356.7 Q1163.66 1358.99 1167.9 1358.99 Q1170.35 1358.99 1172.64 1358.39 Q1174.96 1357.78 1177.23 1356.58 L1177.23 1360.61 Q1174.93 1361.58 1172.53 1362.09 Q1170.12 1362.6 1167.64 1362.6 Q1161.44 1362.6 1157.8 1358.99 Q1154.19 1355.38 1154.19 1349.22 Q1154.19 1342.85 1157.62 1339.13 Q1161.07 1335.38 1166.9 1335.38 Q1172.13 1335.38 1175.17 1338.76 Q1178.22 1342.11 1178.22 1347.9 M1173.96 1346.65 Q1173.92 1343.15 1171.99 1341.07 Q1170.1 1338.99 1166.95 1338.99 Q1163.38 1338.99 1161.23 1341 Q1159.1 1343.01 1158.78 1346.67 L1173.96 1346.65 Z" fill="#000000" fill-rule="evenodd" fill-opacity="1" /><path clip-path="url(#clip960)" d="M1222.46 1347.9 L1222.46 1349.98 L1202.87 1349.98 Q1203.15 1354.38 1205.51 1356.7 Q1207.9 1358.99 1212.13 1358.99 Q1214.59 1358.99 1216.88 1358.39 Q1219.19 1357.78 1221.46 1356.58 L1221.46 1360.61 Q1219.17 1361.58 1216.76 1362.09 Q1214.36 1362.6 1211.88 1362.6 Q1205.67 1362.6 1202.04 1358.99 Q1198.43 1355.38 1198.43 1349.22 Q1198.43 1342.85 1201.86 1339.13 Q1205.3 1335.38 1211.14 1335.38 Q1216.37 1335.38 1219.4 1338.76 Q1222.46 1342.11 1222.46 1347.9 M1218.2 1346.65 Q1218.15 1343.15 1216.23 1341.07 Q1214.33 1338.99 1211.18 1338.99 Q1207.62 1338.99 1205.47 1341 Q1203.34 1343.01 1203.01 1346.67 L1218.2 1346.65 Z" fill="#000000" fill-rule="evenodd" fill-opacity="1" /><path clip-path="url(#clip960)" d="M1244.47 1339.98 Q1243.75 1339.57 1242.9 1339.38 Q1242.06 1339.17 1241.05 1339.17 Q1237.43 1339.17 1235.49 1341.53 Q1233.57 1343.87 1233.57 1348.27 L1233.57 1361.93 L1229.29 1361.93 L1229.29 1336 L1233.57 1336 L1233.57 1340.03 Q1234.91 1337.67 1237.06 1336.53 Q1239.22 1335.38 1242.3 1335.38 Q1242.73 1335.38 1243.27 1335.45 Q1243.8 1335.49 1244.45 1335.61 L1244.47 1339.98 Z" fill="#000000" fill-rule="evenodd" fill-opacity="1" /><path clip-path="url(#clip960)" d="M1263.13 1339.98 Q1262.41 1339.57 1261.55 1339.38 Q1260.72 1339.17 1259.7 1339.17 Q1256.09 1339.17 1254.15 1341.53 Q1252.23 1343.87 1252.23 1348.27 L1252.23 1361.93 L1247.94 1361.93 L1247.94 1336 L1252.23 1336 L1252.23 1340.03 Q1253.57 1337.67 1255.72 1336.53 Q1257.87 1335.38 1260.95 1335.38 Q1261.39 1335.38 1261.92 1335.45 Q1262.46 1335.49 1263.11 1335.61 L1263.13 1339.98 Z" fill="#000000" fill-rule="evenodd" fill-opacity="1" /><path clip-path="url(#clip960)" d="M1276.6 1338.99 Q1273.17 1338.99 1271.18 1341.67 Q1269.19 1344.33 1269.19 1348.99 Q1269.19 1353.64 1271.16 1356.32 Q1273.15 1358.99 1276.6 1358.99 Q1280 1358.99 1281.99 1356.3 Q1283.98 1353.62 1283.98 1348.99 Q1283.98 1344.38 1281.99 1341.7 Q1280 1338.99 1276.6 1338.99 M1276.6 1335.38 Q1282.16 1335.38 1285.33 1338.99 Q1288.5 1342.6 1288.5 1348.99 Q1288.5 1355.35 1285.33 1358.99 Q1282.16 1362.6 1276.6 1362.6 Q1271.02 1362.6 1267.85 1358.99 Q1264.7 1355.35 1264.7 1348.99 Q1264.7 1342.6 1267.85 1338.99 Q1271.02 1335.38 1276.6 1335.38 Z" fill="#000000" fill-rule="evenodd" fill-opacity="1" /><path clip-path="url(#clip960)" d="M1310.58 1339.98 Q1309.86 1339.57 1309.01 1339.38 Q1308.17 1339.17 1307.16 1339.17 Q1303.54 1339.17 1301.6 1341.53 Q1299.68 1343.87 1299.68 1348.27 L1299.68 1361.93 L1295.4 1361.93 L1295.4 1336 L1299.68 1336 L1299.68 1340.03 Q1301.02 1337.67 1303.17 1336.53 Q1305.33 1335.38 1308.41 1335.38 Q1308.85 1335.38 1309.38 1335.45 Q1309.91 1335.49 1310.56 1335.61 L1310.58 1339.98 Z" fill="#000000" fill-rule="evenodd" fill-opacity="1" /></svg>
