<?xml version="1.0" encoding="utf-8"?>
<svg xmlns="http://www.w3.org/2000/svg" xmlns:xlink="http://www.w3.org/1999/xlink" width="600" height="400" viewBox="0 0 2400 1600">
<defs>
  <clipPath id="clip080">
    <rect x="0" y="0" width="2400" height="1600"/>
  </clipPath>
</defs>
<path clip-path="url(#clip080)" d="
M0 1600 L2400 1600 L2400 0 L0 0  Z
  " fill="#ffffff" fill-rule="evenodd" fill-opacity="1"/>
<defs>
  <clipPath id="clip081">
    <rect x="480" y="0" width="1681" height="1600"/>
  </clipPath>
</defs>
<defs>
  <clipPath id="clip082">
    <rect x="199" y="47" width="2154" height="1397"/>
  </clipPath>
</defs>
<path clip-path="url(#clip080)" d="
M199.42 1443.01 L2352.76 1443.01 L2352.76 47.2441 L199.42 47.2441  Z
  " fill="#ffffff" fill-rule="evenodd" fill-opacity="1"/>
<polyline clip-path="url(#clip082)" style="stroke:#000000; stroke-linecap:butt; stroke-linejoin:round; stroke-width:2; stroke-opacity:0.1; fill:none" points="
  260.363,1443.01 260.363,47.2441 
  "/>
<polyline clip-path="url(#clip082)" style="stroke:#000000; stroke-linecap:butt; stroke-linejoin:round; stroke-width:2; stroke-opacity:0.1; fill:none" points="
  937.513,1443.01 937.513,47.2441 
  "/>
<polyline clip-path="url(#clip082)" style="stroke:#000000; stroke-linecap:butt; stroke-linejoin:round; stroke-width:2; stroke-opacity:0.1; fill:none" points="
  1614.66,1443.01 1614.66,47.2441 
  "/>
<polyline clip-path="url(#clip082)" style="stroke:#000000; stroke-linecap:butt; stroke-linejoin:round; stroke-width:2; stroke-opacity:0.1; fill:none" points="
  2291.81,1443.01 2291.81,47.2441 
  "/>
<polyline clip-path="url(#clip080)" style="stroke:#000000; stroke-linecap:butt; stroke-linejoin:round; stroke-width:4; stroke-opacity:1; fill:none" points="
  199.42,1443.01 2352.76,1443.01 
  "/>
<polyline clip-path="url(#clip080)" style="stroke:#000000; stroke-linecap:butt; stroke-linejoin:round; stroke-width:4; stroke-opacity:1; fill:none" points="
  260.363,1443.01 260.363,1424.11 
  "/>
<polyline clip-path="url(#clip080)" style="stroke:#000000; stroke-linecap:butt; stroke-linejoin:round; stroke-width:4; stroke-opacity:1; fill:none" points="
  937.513,1443.01 937.513,1424.11 
  "/>
<polyline clip-path="url(#clip080)" style="stroke:#000000; stroke-linecap:butt; stroke-linejoin:round; stroke-width:4; stroke-opacity:1; fill:none" points="
  1614.66,1443.01 1614.66,1424.11 
  "/>
<polyline clip-path="url(#clip080)" style="stroke:#000000; stroke-linecap:butt; stroke-linejoin:round; stroke-width:4; stroke-opacity:1; fill:none" points="
  2291.81,1443.01 2291.81,1424.11 
  "/>
<path clip-path="url(#clip080)" d="M228.014 1499.75 L235.653 1499.75 L235.653 1473.38 L227.342 1475.05 L227.342 1470.79 L235.606 1469.12 L240.282 1469.12 L240.282 1499.75 L247.921 1499.75 L247.921 1503.68 L228.014 1503.68 L228.014 1499.75 Z" fill="#000000" fill-rule="evenodd" fill-opacity="1" /><path clip-path="url(#clip080)" d="M257.365 1497.8 L262.25 1497.8 L262.25 1503.68 L257.365 1503.68 L257.365 1497.8 Z" fill="#000000" fill-rule="evenodd" fill-opacity="1" /><path clip-path="url(#clip080)" d="M272.481 1469.12 L290.837 1469.12 L290.837 1473.06 L276.763 1473.06 L276.763 1481.53 Q277.782 1481.18 278.8 1481.02 Q279.819 1480.84 280.838 1480.84 Q286.625 1480.84 290.004 1484.01 Q293.384 1487.18 293.384 1492.6 Q293.384 1498.18 289.912 1501.28 Q286.439 1504.36 280.12 1504.36 Q277.944 1504.36 275.676 1503.99 Q273.43 1503.61 271.023 1502.87 L271.023 1498.18 Q273.106 1499.31 275.328 1499.86 Q277.551 1500.42 280.027 1500.42 Q284.032 1500.42 286.37 1498.31 Q288.708 1496.21 288.708 1492.6 Q288.708 1488.99 286.37 1486.88 Q284.032 1484.77 280.027 1484.77 Q278.152 1484.77 276.277 1485.19 Q274.426 1485.61 272.481 1486.49 L272.481 1469.12 Z" fill="#000000" fill-rule="evenodd" fill-opacity="1" /><path clip-path="url(#clip080)" d="M908.751 1499.75 L925.071 1499.75 L925.071 1503.68 L903.126 1503.68 L903.126 1499.75 Q905.789 1496.99 910.372 1492.36 Q914.978 1487.71 916.159 1486.37 Q918.404 1483.85 919.284 1482.11 Q920.187 1480.35 920.187 1478.66 Q920.187 1475.91 918.242 1474.17 Q916.321 1472.43 913.219 1472.43 Q911.02 1472.43 908.566 1473.2 Q906.136 1473.96 903.358 1475.51 L903.358 1470.79 Q906.182 1469.66 908.636 1469.08 Q911.089 1468.5 913.126 1468.5 Q918.497 1468.5 921.691 1471.18 Q924.886 1473.87 924.886 1478.36 Q924.886 1480.49 924.075 1482.41 Q923.288 1484.31 921.182 1486.9 Q920.603 1487.57 917.501 1490.79 Q914.4 1493.99 908.751 1499.75 Z" fill="#000000" fill-rule="evenodd" fill-opacity="1" /><path clip-path="url(#clip080)" d="M934.886 1497.8 L939.77 1497.8 L939.77 1503.68 L934.886 1503.68 L934.886 1497.8 Z" fill="#000000" fill-rule="evenodd" fill-opacity="1" /><path clip-path="url(#clip080)" d="M959.955 1472.2 Q956.344 1472.2 954.515 1475.77 Q952.71 1479.31 952.71 1486.44 Q952.71 1493.55 954.515 1497.11 Q956.344 1500.65 959.955 1500.65 Q963.589 1500.65 965.395 1497.11 Q967.223 1493.55 967.223 1486.44 Q967.223 1479.31 965.395 1475.77 Q963.589 1472.2 959.955 1472.2 M959.955 1468.5 Q965.765 1468.5 968.821 1473.11 Q971.899 1477.69 971.899 1486.44 Q971.899 1495.17 968.821 1499.77 Q965.765 1504.36 959.955 1504.36 Q954.145 1504.36 951.066 1499.77 Q948.011 1495.17 948.011 1486.44 Q948.011 1477.69 951.066 1473.11 Q954.145 1468.5 959.955 1468.5 Z" fill="#000000" fill-rule="evenodd" fill-opacity="1" /><path clip-path="url(#clip080)" d="M1586.4 1499.75 L1602.72 1499.75 L1602.72 1503.68 L1580.77 1503.68 L1580.77 1499.75 Q1583.44 1496.99 1588.02 1492.36 Q1592.63 1487.71 1593.81 1486.37 Q1596.05 1483.85 1596.93 1482.11 Q1597.83 1480.35 1597.83 1478.66 Q1597.83 1475.91 1595.89 1474.17 Q1593.97 1472.43 1590.87 1472.43 Q1588.67 1472.43 1586.21 1473.2 Q1583.78 1473.96 1581.01 1475.51 L1581.01 1470.79 Q1583.83 1469.66 1586.28 1469.08 Q1588.74 1468.5 1590.77 1468.5 Q1596.14 1468.5 1599.34 1471.18 Q1602.53 1473.87 1602.53 1478.36 Q1602.53 1480.49 1601.72 1482.41 Q1600.94 1484.31 1598.83 1486.9 Q1598.25 1487.57 1595.15 1490.79 Q1592.05 1493.99 1586.4 1499.75 Z" fill="#000000" fill-rule="evenodd" fill-opacity="1" /><path clip-path="url(#clip080)" d="M1612.53 1497.8 L1617.42 1497.8 L1617.42 1503.68 L1612.53 1503.68 L1612.53 1497.8 Z" fill="#000000" fill-rule="evenodd" fill-opacity="1" /><path clip-path="url(#clip080)" d="M1627.65 1469.12 L1646.01 1469.12 L1646.01 1473.06 L1631.93 1473.06 L1631.93 1481.53 Q1632.95 1481.18 1633.97 1481.02 Q1634.99 1480.84 1636.01 1480.84 Q1641.79 1480.84 1645.17 1484.01 Q1648.55 1487.18 1648.55 1492.6 Q1648.55 1498.18 1645.08 1501.28 Q1641.61 1504.36 1635.29 1504.36 Q1633.11 1504.36 1630.84 1503.99 Q1628.6 1503.61 1626.19 1502.87 L1626.19 1498.18 Q1628.27 1499.31 1630.5 1499.86 Q1632.72 1500.42 1635.19 1500.42 Q1639.2 1500.42 1641.54 1498.31 Q1643.88 1496.21 1643.88 1492.6 Q1643.88 1488.99 1641.54 1486.88 Q1639.2 1484.77 1635.19 1484.77 Q1633.32 1484.77 1631.44 1485.19 Q1629.59 1485.61 1627.65 1486.49 L1627.65 1469.12 Z" fill="#000000" fill-rule="evenodd" fill-opacity="1" /><path clip-path="url(#clip080)" d="M2273.12 1485.05 Q2276.48 1485.77 2278.35 1488.04 Q2280.25 1490.3 2280.25 1493.64 Q2280.25 1498.75 2276.73 1501.55 Q2273.21 1504.36 2266.73 1504.36 Q2264.56 1504.36 2262.24 1503.92 Q2259.95 1503.5 2257.5 1502.64 L2257.5 1498.13 Q2259.44 1499.26 2261.75 1499.84 Q2264.07 1500.42 2266.59 1500.42 Q2270.99 1500.42 2273.28 1498.68 Q2275.6 1496.95 2275.6 1493.64 Q2275.6 1490.58 2273.44 1488.87 Q2271.31 1487.13 2267.5 1487.13 L2263.47 1487.13 L2263.47 1483.29 L2267.68 1483.29 Q2271.13 1483.29 2272.96 1481.93 Q2274.79 1480.54 2274.79 1477.94 Q2274.79 1475.28 2272.89 1473.87 Q2271.01 1472.43 2267.5 1472.43 Q2265.57 1472.43 2263.38 1472.85 Q2261.18 1473.27 2258.54 1474.15 L2258.54 1469.98 Q2261.2 1469.24 2263.51 1468.87 Q2265.85 1468.5 2267.91 1468.5 Q2273.24 1468.5 2276.34 1470.93 Q2279.44 1473.34 2279.44 1477.46 Q2279.44 1480.33 2277.8 1482.32 Q2276.15 1484.29 2273.12 1485.05 Z" fill="#000000" fill-rule="evenodd" fill-opacity="1" /><path clip-path="url(#clip080)" d="M2289.12 1497.8 L2294 1497.8 L2294 1503.68 L2289.12 1503.68 L2289.12 1497.8 Z" fill="#000000" fill-rule="evenodd" fill-opacity="1" /><path clip-path="url(#clip080)" d="M2314.18 1472.2 Q2310.57 1472.2 2308.75 1475.77 Q2306.94 1479.31 2306.94 1486.44 Q2306.94 1493.55 2308.75 1497.11 Q2310.57 1500.65 2314.18 1500.65 Q2317.82 1500.65 2319.62 1497.11 Q2321.45 1493.55 2321.45 1486.44 Q2321.45 1479.31 2319.62 1475.77 Q2317.82 1472.2 2314.18 1472.2 M2314.18 1468.5 Q2320 1468.5 2323.05 1473.11 Q2326.13 1477.69 2326.13 1486.44 Q2326.13 1495.17 2323.05 1499.77 Q2320 1504.36 2314.18 1504.36 Q2308.37 1504.36 2305.3 1499.77 Q2302.24 1495.17 2302.24 1486.44 Q2302.24 1477.69 2305.3 1473.11 Q2308.37 1468.5 2314.18 1468.5 Z" fill="#000000" fill-rule="evenodd" fill-opacity="1" /><path clip-path="url(#clip080)" d="M1294.12 1536.96 Q1294.12 1541.66 1291.74 1546.2 Q1289.39 1550.74 1285.68 1553.55 Q1281.98 1556.31 1278.21 1556.31 Q1275.96 1556.31 1274.44 1555.09 Q1272.96 1553.84 1272.16 1552.06 Q1271.54 1554.25 1270.22 1559.5 Q1268.9 1564.75 1268.9 1565.27 Q1268.9 1565.56 1268.97 1565.69 Q1269.03 1565.82 1269.32 1565.98 Q1269.61 1566.17 1270.32 1566.23 Q1271.03 1566.33 1272.22 1566.33 Q1272.83 1566.33 1273.06 1566.33 Q1273.32 1566.36 1273.54 1566.52 Q1273.8 1566.69 1273.8 1567.04 Q1273.8 1568.36 1272.61 1568.36 Q1271.54 1568.36 1269.35 1568.26 Q1267.16 1568.17 1266.07 1568.17 Q1265.14 1568.17 1263.27 1568.26 Q1261.4 1568.36 1260.53 1568.36 Q1259.66 1568.36 1259.66 1567.59 Q1259.66 1567.14 1259.79 1566.85 Q1259.89 1566.59 1260.14 1566.46 Q1260.4 1566.36 1260.63 1566.33 Q1260.82 1566.33 1261.21 1566.33 Q1262.69 1566.33 1263.33 1566.07 Q1263.98 1565.85 1264.2 1565.36 Q1264.46 1564.91 1264.75 1563.63 L1272.16 1534.25 Q1272.61 1532.29 1272.61 1530.9 Q1272.61 1529.17 1272.06 1528.52 Q1271.51 1527.88 1270.55 1527.88 Q1268.87 1527.88 1267.78 1529.87 Q1266.68 1531.87 1265.75 1535.74 Q1265.46 1536.8 1265.26 1537.02 Q1265.1 1537.25 1264.62 1537.25 Q1263.81 1537.22 1263.81 1536.57 Q1263.81 1536.41 1264.07 1535.38 Q1264.33 1534.32 1264.81 1532.77 Q1265.33 1531.19 1265.88 1530.2 Q1266.2 1529.52 1266.49 1529.07 Q1266.78 1528.62 1267.36 1527.91 Q1267.97 1527.2 1268.84 1526.81 Q1269.71 1526.43 1270.77 1526.43 Q1272.83 1526.43 1274.54 1527.65 Q1276.25 1528.88 1276.7 1531.36 Q1278.53 1529.2 1280.79 1527.81 Q1283.04 1526.43 1285.33 1526.43 Q1289.13 1526.43 1291.61 1529.39 Q1294.12 1532.32 1294.12 1536.96 M1289.35 1534.06 Q1289.35 1531.13 1288.23 1529.52 Q1287.13 1527.88 1285.13 1527.88 Q1282.66 1527.88 1279.79 1530.39 Q1276.95 1532.77 1276.37 1534.99 L1273.12 1547.91 L1272.93 1548.97 Q1272.93 1549.17 1273.03 1549.74 Q1273.15 1550.29 1273.51 1551.19 Q1273.9 1552.1 1274.41 1552.9 Q1274.96 1553.67 1275.92 1554.25 Q1276.92 1554.83 1278.15 1554.83 Q1280.11 1554.83 1282.24 1553.09 Q1284.39 1551.36 1286 1548.07 Q1287 1545.94 1288.16 1541.37 Q1289.35 1536.77 1289.35 1534.06 Z" fill="#000000" fill-rule="evenodd" fill-opacity="1" /><polyline clip-path="url(#clip082)" style="stroke:#000000; stroke-linecap:butt; stroke-linejoin:round; stroke-width:2; stroke-opacity:0.1; fill:none" points="
  199.42,1421.63 2352.76,1421.63 
  "/>
<polyline clip-path="url(#clip082)" style="stroke:#000000; stroke-linecap:butt; stroke-linejoin:round; stroke-width:2; stroke-opacity:0.1; fill:none" points="
  199.42,1135.14 2352.76,1135.14 
  "/>
<polyline clip-path="url(#clip082)" style="stroke:#000000; stroke-linecap:butt; stroke-linejoin:round; stroke-width:2; stroke-opacity:0.1; fill:none" points="
  199.42,848.653 2352.76,848.653 
  "/>
<polyline clip-path="url(#clip082)" style="stroke:#000000; stroke-linecap:butt; stroke-linejoin:round; stroke-width:2; stroke-opacity:0.1; fill:none" points="
  199.42,562.166 2352.76,562.166 
  "/>
<polyline clip-path="url(#clip082)" style="stroke:#000000; stroke-linecap:butt; stroke-linejoin:round; stroke-width:2; stroke-opacity:0.1; fill:none" points="
  199.42,275.679 2352.76,275.679 
  "/>
<polyline clip-path="url(#clip080)" style="stroke:#000000; stroke-linecap:butt; stroke-linejoin:round; stroke-width:4; stroke-opacity:1; fill:none" points="
  199.42,1443.01 199.42,47.2441 
  "/>
<polyline clip-path="url(#clip080)" style="stroke:#000000; stroke-linecap:butt; stroke-linejoin:round; stroke-width:4; stroke-opacity:1; fill:none" points="
  199.42,1421.63 218.317,1421.63 
  "/>
<polyline clip-path="url(#clip080)" style="stroke:#000000; stroke-linecap:butt; stroke-linejoin:round; stroke-width:4; stroke-opacity:1; fill:none" points="
  199.42,1135.14 218.317,1135.14 
  "/>
<polyline clip-path="url(#clip080)" style="stroke:#000000; stroke-linecap:butt; stroke-linejoin:round; stroke-width:4; stroke-opacity:1; fill:none" points="
  199.42,848.653 218.317,848.653 
  "/>
<polyline clip-path="url(#clip080)" style="stroke:#000000; stroke-linecap:butt; stroke-linejoin:round; stroke-width:4; stroke-opacity:1; fill:none" points="
  199.42,562.166 218.317,562.166 
  "/>
<polyline clip-path="url(#clip080)" style="stroke:#000000; stroke-linecap:butt; stroke-linejoin:round; stroke-width:4; stroke-opacity:1; fill:none" points="
  199.42,275.679 218.317,275.679 
  "/>
<path clip-path="url(#clip080)" d="M142.517 1404.35 L160.873 1404.35 L160.873 1408.28 L146.799 1408.28 L146.799 1416.76 Q147.818 1416.41 148.836 1416.25 Q149.855 1416.06 150.873 1416.06 Q156.66 1416.06 160.04 1419.23 Q163.42 1422.4 163.42 1427.82 Q163.42 1433.4 159.947 1436.5 Q156.475 1439.58 150.156 1439.58 Q147.98 1439.58 145.711 1439.21 Q143.466 1438.84 141.059 1438.1 L141.059 1433.4 Q143.142 1434.53 145.364 1435.09 Q147.586 1435.64 150.063 1435.64 Q154.068 1435.64 156.406 1433.54 Q158.744 1431.43 158.744 1427.82 Q158.744 1424.21 156.406 1422.1 Q154.068 1420 150.063 1420 Q148.188 1420 146.313 1420.41 Q144.461 1420.83 142.517 1421.71 L142.517 1404.35 Z" fill="#000000" fill-rule="evenodd" fill-opacity="1" /><path clip-path="url(#clip080)" d="M112.124 1148.49 L119.762 1148.49 L119.762 1122.12 L111.452 1123.79 L111.452 1119.53 L119.716 1117.86 L124.392 1117.86 L124.392 1148.49 L132.031 1148.49 L132.031 1152.42 L112.124 1152.42 L112.124 1148.49 Z" fill="#000000" fill-rule="evenodd" fill-opacity="1" /><path clip-path="url(#clip080)" d="M151.475 1120.94 Q147.864 1120.94 146.035 1124.5 Q144.23 1128.05 144.23 1135.18 Q144.23 1142.28 146.035 1145.85 Q147.864 1149.39 151.475 1149.39 Q155.109 1149.39 156.915 1145.85 Q158.744 1142.28 158.744 1135.18 Q158.744 1128.05 156.915 1124.5 Q155.109 1120.94 151.475 1120.94 M151.475 1117.24 Q157.285 1117.24 160.341 1121.84 Q163.42 1126.43 163.42 1135.18 Q163.42 1143.9 160.341 1148.51 Q157.285 1153.09 151.475 1153.09 Q145.665 1153.09 142.586 1148.51 Q139.531 1143.9 139.531 1135.18 Q139.531 1126.43 142.586 1121.84 Q145.665 1117.24 151.475 1117.24 Z" fill="#000000" fill-rule="evenodd" fill-opacity="1" /><path clip-path="url(#clip080)" d="M113.119 861.998 L120.758 861.998 L120.758 835.632 L112.448 837.299 L112.448 833.04 L120.712 831.373 L125.387 831.373 L125.387 861.998 L133.026 861.998 L133.026 865.933 L113.119 865.933 L113.119 861.998 Z" fill="#000000" fill-rule="evenodd" fill-opacity="1" /><path clip-path="url(#clip080)" d="M142.517 831.373 L160.873 831.373 L160.873 835.308 L146.799 835.308 L146.799 843.781 Q147.818 843.433 148.836 843.271 Q149.855 843.086 150.873 843.086 Q156.66 843.086 160.04 846.257 Q163.42 849.429 163.42 854.845 Q163.42 860.424 159.947 863.526 Q156.475 866.604 150.156 866.604 Q147.98 866.604 145.711 866.234 Q143.466 865.864 141.059 865.123 L141.059 860.424 Q143.142 861.558 145.364 862.114 Q147.586 862.669 150.063 862.669 Q154.068 862.669 156.406 860.563 Q158.744 858.456 158.744 854.845 Q158.744 851.234 156.406 849.128 Q154.068 847.021 150.063 847.021 Q148.188 847.021 146.313 847.438 Q144.461 847.855 142.517 848.734 L142.517 831.373 Z" fill="#000000" fill-rule="evenodd" fill-opacity="1" /><path clip-path="url(#clip080)" d="M115.341 575.511 L131.661 575.511 L131.661 579.446 L109.716 579.446 L109.716 575.511 Q112.378 572.756 116.962 568.127 Q121.568 563.474 122.749 562.131 Q124.994 559.608 125.874 557.872 Q126.776 556.113 126.776 554.423 Q126.776 551.668 124.832 549.932 Q122.911 548.196 119.809 548.196 Q117.61 548.196 115.156 548.96 Q112.725 549.724 109.948 551.275 L109.948 546.553 Q112.772 545.418 115.225 544.84 Q117.679 544.261 119.716 544.261 Q125.086 544.261 128.281 546.946 Q131.475 549.631 131.475 554.122 Q131.475 556.252 130.665 558.173 Q129.878 560.071 127.772 562.664 Q127.193 563.335 124.091 566.552 Q120.989 569.747 115.341 575.511 Z" fill="#000000" fill-rule="evenodd" fill-opacity="1" /><path clip-path="url(#clip080)" d="M151.475 547.965 Q147.864 547.965 146.035 551.529 Q144.23 555.071 144.23 562.201 Q144.23 569.307 146.035 572.872 Q147.864 576.414 151.475 576.414 Q155.109 576.414 156.915 572.872 Q158.744 569.307 158.744 562.201 Q158.744 555.071 156.915 551.529 Q155.109 547.965 151.475 547.965 M151.475 544.261 Q157.285 544.261 160.341 548.867 Q163.42 553.451 163.42 562.201 Q163.42 570.927 160.341 575.534 Q157.285 580.117 151.475 580.117 Q145.665 580.117 142.586 575.534 Q139.531 570.927 139.531 562.201 Q139.531 553.451 142.586 548.867 Q145.665 544.261 151.475 544.261 Z" fill="#000000" fill-rule="evenodd" fill-opacity="1" /><path clip-path="url(#clip080)" d="M116.337 289.024 L132.656 289.024 L132.656 292.959 L110.712 292.959 L110.712 289.024 Q113.374 286.269 117.957 281.639 Q122.563 276.987 123.744 275.644 Q125.989 273.121 126.869 271.385 Q127.772 269.625 127.772 267.936 Q127.772 265.181 125.827 263.445 Q123.906 261.709 120.804 261.709 Q118.605 261.709 116.151 262.473 Q113.721 263.237 110.943 264.788 L110.943 260.065 Q113.767 258.931 116.221 258.352 Q118.674 257.774 120.712 257.774 Q126.082 257.774 129.276 260.459 Q132.471 263.144 132.471 267.635 Q132.471 269.764 131.661 271.686 Q130.873 273.584 128.767 276.176 Q128.188 276.848 125.086 280.065 Q121.985 283.26 116.337 289.024 Z" fill="#000000" fill-rule="evenodd" fill-opacity="1" /><path clip-path="url(#clip080)" d="M142.517 258.399 L160.873 258.399 L160.873 262.334 L146.799 262.334 L146.799 270.806 Q147.818 270.459 148.836 270.297 Q149.855 270.112 150.873 270.112 Q156.66 270.112 160.04 273.283 Q163.42 276.454 163.42 281.871 Q163.42 287.449 159.947 290.551 Q156.475 293.63 150.156 293.63 Q147.98 293.63 145.711 293.26 Q143.466 292.889 141.059 292.148 L141.059 287.449 Q143.142 288.584 145.364 289.139 Q147.586 289.695 150.063 289.695 Q154.068 289.695 156.406 287.588 Q158.744 285.482 158.744 281.871 Q158.744 278.26 156.406 276.153 Q154.068 274.047 150.063 274.047 Q148.188 274.047 146.313 274.463 Q144.461 274.88 142.517 275.76 L142.517 258.399 Z" fill="#000000" fill-rule="evenodd" fill-opacity="1" /><path clip-path="url(#clip080)" d="M61.0911 743.247 Q61.703 743.247 61.7674 743.955 L61.7674 745.405 Q61.7674 746.886 61.542 747.53 Q61.3165 748.174 60.2859 748.915 Q59.6418 749.366 56.6467 750.493 Q53.6193 751.588 49.0461 753.198 Q44.4729 754.777 41.7676 755.839 L60.5114 771.717 Q61.8962 772.812 61.8962 773.907 Q61.8962 774.712 61.3487 775.292 Q60.8012 775.871 59.9639 775.871 Q59.352 775.871 58.9977 775.646 Q58.6434 775.388 57.9349 774.712 L39.8674 756.483 L21.9288 762.892 Q18.6115 764.116 17.7742 764.825 Q16.9368 765.501 16.647 767.176 Q16.486 767.788 15.9707 767.788 Q15.2621 767.788 15.2621 766.596 Q15.2621 760.219 19.932 758.545 L57.4518 745.083 Q59.6096 744.342 60.5114 743.569 Q60.9301 743.247 61.0911 743.247 Z" fill="#000000" fill-rule="evenodd" fill-opacity="1" /><path clip-path="url(#clip080)" d="M53.8085 736.519 L52.3657 736.519 Q52.3657 730.973 49.4124 728.11 Q49.4124 727.321 49.5928 727.186 Q49.7732 727.05 50.6073 727.05 L76.5105 727.05 Q77.8857 727.05 78.314 726.374 Q78.7423 725.698 78.7423 722.744 L78.7423 721.279 L80.1626 721.279 Q80.0273 722.902 80.0273 728.764 Q80.0273 734.625 80.1626 736.226 L78.7423 736.226 L78.7423 734.76 Q78.7423 731.852 78.3365 731.153 Q77.9082 730.454 76.5105 730.454 L52.5912 730.454 Q53.8085 732.867 53.8085 736.519 Z" fill="#000000" fill-rule="evenodd" fill-opacity="1" /><polyline clip-path="url(#clip082)" style="stroke:#009af9; stroke-linecap:butt; stroke-linejoin:round; stroke-width:4; stroke-opacity:1; fill:none" points="
  260.363,1403.37 395.793,1359.94 531.223,1312.65 666.653,1260.99 802.083,1204.49 937.513,1142.61 1072.94,1074.83 1208.37,1000.56 1343.8,919.196 1479.23,830.057 
  1614.66,732.428 1750.09,625.529 1885.52,508.515 2020.95,380.471 2156.38,240.405 2291.81,87.241 
  "/>
<path clip-path="url(#clip082)" d="
M260.363 1403.25 L395.793 1359.82 L531.223 1312.52 L666.653 1260.85 L802.083 1204.33 L937.513 1142.44 L1072.94 1074.64 L1208.37 1000.36 L1343.8 918.964 L1479.23 829.8 
  L1614.66 732.142 L1750.09 625.21 L1885.52 508.159 L2020.95 380.074 L2156.38 239.963 L2291.81 86.747 L2291.81 87.241 L2156.38 240.405 L2020.95 380.471 L1885.52 508.515 
  L1750.09 625.529 L1614.66 732.428 L1479.23 830.057 L1343.8 919.196 L1208.37 1000.56 L1072.94 1074.83 L937.513 1142.61 L802.083 1204.49 L666.653 1260.99 L531.223 1312.65 
  L395.793 1359.94 L260.363 1403.37  Z
  " fill="#333333" fill-rule="evenodd" fill-opacity="0.2"/>
<circle clip-path="url(#clip082)" cx="260.363" cy="1403.25" r="10" fill="#e26f46" fill-rule="evenodd" fill-opacity="1" stroke="#000000" stroke-opacity="1" stroke-width="0"/>
<circle clip-path="url(#clip082)" cx="395.793" cy="1359.82" r="10" fill="#e26f46" fill-rule="evenodd" fill-opacity="1" stroke="#000000" stroke-opacity="1" stroke-width="0"/>
<circle clip-path="url(#clip082)" cx="531.223" cy="1312.52" r="10" fill="#e26f46" fill-rule="evenodd" fill-opacity="1" stroke="#000000" stroke-opacity="1" stroke-width="0"/>
<circle clip-path="url(#clip082)" cx="666.653" cy="1260.85" r="10" fill="#e26f46" fill-rule="evenodd" fill-opacity="1" stroke="#000000" stroke-opacity="1" stroke-width="0"/>
<circle clip-path="url(#clip082)" cx="802.083" cy="1204.33" r="10" fill="#e26f46" fill-rule="evenodd" fill-opacity="1" stroke="#000000" stroke-opacity="1" stroke-width="0"/>
<circle clip-path="url(#clip082)" cx="937.513" cy="1142.44" r="10" fill="#e26f46" fill-rule="evenodd" fill-opacity="1" stroke="#000000" stroke-opacity="1" stroke-width="0"/>
<circle clip-path="url(#clip082)" cx="1072.94" cy="1074.64" r="10" fill="#e26f46" fill-rule="evenodd" fill-opacity="1" stroke="#000000" stroke-opacity="1" stroke-width="0"/>
<circle clip-path="url(#clip082)" cx="1208.37" cy="1000.36" r="10" fill="#e26f46" fill-rule="evenodd" fill-opacity="1" stroke="#000000" stroke-opacity="1" stroke-width="0"/>
<circle clip-path="url(#clip082)" cx="1343.8" cy="918.964" r="10" fill="#e26f46" fill-rule="evenodd" fill-opacity="1" stroke="#000000" stroke-opacity="1" stroke-width="0"/>
<circle clip-path="url(#clip082)" cx="1479.23" cy="829.8" r="10" fill="#e26f46" fill-rule="evenodd" fill-opacity="1" stroke="#000000" stroke-opacity="1" stroke-width="0"/>
<circle clip-path="url(#clip082)" cx="1614.66" cy="732.142" r="10" fill="#e26f46" fill-rule="evenodd" fill-opacity="1" stroke="#000000" stroke-opacity="1" stroke-width="0"/>
<circle clip-path="url(#clip082)" cx="1750.09" cy="625.21" r="10" fill="#e26f46" fill-rule="evenodd" fill-opacity="1" stroke="#000000" stroke-opacity="1" stroke-width="0"/>
<circle clip-path="url(#clip082)" cx="1885.52" cy="508.159" r="10" fill="#e26f46" fill-rule="evenodd" fill-opacity="1" stroke="#000000" stroke-opacity="1" stroke-width="0"/>
<circle clip-path="url(#clip082)" cx="2020.95" cy="380.074" r="10" fill="#e26f46" fill-rule="evenodd" fill-opacity="1" stroke="#000000" stroke-opacity="1" stroke-width="0"/>
<circle clip-path="url(#clip082)" cx="2156.38" cy="239.963" r="10" fill="#e26f46" fill-rule="evenodd" fill-opacity="1" stroke="#000000" stroke-opacity="1" stroke-width="0"/>
<circle clip-path="url(#clip082)" cx="2291.81" cy="86.747" r="10" fill="#e26f46" fill-rule="evenodd" fill-opacity="1" stroke="#000000" stroke-opacity="1" stroke-width="0"/>
<path clip-path="url(#clip082)" d="
M260.363 1403.51 L395.793 1360.12 L531.223 1312.87 L666.653 1261.27 L802.083 1204.83 L937.513 1143.02 L1072.94 1075.32 L1208.37 1001.14 L1343.8 919.879 L1479.23 830.884 
  L1614.66 733.437 L1750.09 626.774 L1885.52 510.042 L2020.95 382.345 L2156.38 242.698 L2291.81 90.039 L2291.81 87.241 L2156.38 240.405 L2020.95 380.471 L1885.52 508.515 
  L1750.09 625.529 L1614.66 732.428 L1479.23 830.057 L1343.8 919.196 L1208.37 1000.56 L1072.94 1074.83 L937.513 1142.61 L802.083 1204.49 L666.653 1260.99 L531.223 1312.65 
  L395.793 1359.94 L260.363 1403.37  Z
  " fill="#7f7f7f" fill-rule="evenodd" fill-opacity="0.2"/>
<circle clip-path="url(#clip082)" cx="260.363" cy="1403.51" r="10" fill="#3da44d" fill-rule="evenodd" fill-opacity="1" stroke="#000000" stroke-opacity="1" stroke-width="0"/>
<circle clip-path="url(#clip082)" cx="395.793" cy="1360.12" r="10" fill="#3da44d" fill-rule="evenodd" fill-opacity="1" stroke="#000000" stroke-opacity="1" stroke-width="0"/>
<circle clip-path="url(#clip082)" cx="531.223" cy="1312.87" r="10" fill="#3da44d" fill-rule="evenodd" fill-opacity="1" stroke="#000000" stroke-opacity="1" stroke-width="0"/>
<circle clip-path="url(#clip082)" cx="666.653" cy="1261.27" r="10" fill="#3da44d" fill-rule="evenodd" fill-opacity="1" stroke="#000000" stroke-opacity="1" stroke-width="0"/>
<circle clip-path="url(#clip082)" cx="802.083" cy="1204.83" r="10" fill="#3da44d" fill-rule="evenodd" fill-opacity="1" stroke="#000000" stroke-opacity="1" stroke-width="0"/>
<circle clip-path="url(#clip082)" cx="937.513" cy="1143.02" r="10" fill="#3da44d" fill-rule="evenodd" fill-opacity="1" stroke="#000000" stroke-opacity="1" stroke-width="0"/>
<circle clip-path="url(#clip082)" cx="1072.94" cy="1075.32" r="10" fill="#3da44d" fill-rule="evenodd" fill-opacity="1" stroke="#000000" stroke-opacity="1" stroke-width="0"/>
<circle clip-path="url(#clip082)" cx="1208.37" cy="1001.14" r="10" fill="#3da44d" fill-rule="evenodd" fill-opacity="1" stroke="#000000" stroke-opacity="1" stroke-width="0"/>
<circle clip-path="url(#clip082)" cx="1343.8" cy="919.879" r="10" fill="#3da44d" fill-rule="evenodd" fill-opacity="1" stroke="#000000" stroke-opacity="1" stroke-width="0"/>
<circle clip-path="url(#clip082)" cx="1479.23" cy="830.884" r="10" fill="#3da44d" fill-rule="evenodd" fill-opacity="1" stroke="#000000" stroke-opacity="1" stroke-width="0"/>
<circle clip-path="url(#clip082)" cx="1614.66" cy="733.437" r="10" fill="#3da44d" fill-rule="evenodd" fill-opacity="1" stroke="#000000" stroke-opacity="1" stroke-width="0"/>
<circle clip-path="url(#clip082)" cx="1750.09" cy="626.774" r="10" fill="#3da44d" fill-rule="evenodd" fill-opacity="1" stroke="#000000" stroke-opacity="1" stroke-width="0"/>
<circle clip-path="url(#clip082)" cx="1885.52" cy="510.042" r="10" fill="#3da44d" fill-rule="evenodd" fill-opacity="1" stroke="#000000" stroke-opacity="1" stroke-width="0"/>
<circle clip-path="url(#clip082)" cx="2020.95" cy="382.345" r="10" fill="#3da44d" fill-rule="evenodd" fill-opacity="1" stroke="#000000" stroke-opacity="1" stroke-width="0"/>
<circle clip-path="url(#clip082)" cx="2156.38" cy="242.698" r="10" fill="#3da44d" fill-rule="evenodd" fill-opacity="1" stroke="#000000" stroke-opacity="1" stroke-width="0"/>
<circle clip-path="url(#clip082)" cx="2291.81" cy="90.039" r="10" fill="#3da44d" fill-rule="evenodd" fill-opacity="1" stroke="#000000" stroke-opacity="1" stroke-width="0"/>
<path clip-path="url(#clip080)" d="
M1685.7 1396.49 L2280.98 1396.49 L2280.98 1189.13 L1685.7 1189.13  Z
  " fill="#ffffff" fill-rule="evenodd" fill-opacity="1"/>
<polyline clip-path="url(#clip080)" style="stroke:#000000; stroke-linecap:butt; stroke-linejoin:round; stroke-width:4; stroke-opacity:1; fill:none" points="
  1685.7,1396.49 2280.98,1396.49 2280.98,1189.13 1685.7,1189.13 1685.7,1396.49 
  "/>
<polyline clip-path="url(#clip080)" style="stroke:#009af9; stroke-linecap:butt; stroke-linejoin:round; stroke-width:4; stroke-opacity:1; fill:none" points="
  1709.63,1240.97 1853.18,1240.97 
  "/>
<path clip-path="url(#clip080)" d="M1901.14 1244.22 L1901.14 1246.3 L1881.55 1246.3 Q1881.83 1250.7 1884.19 1253.02 Q1886.58 1255.31 1890.81 1255.31 Q1893.27 1255.31 1895.56 1254.71 Q1897.87 1254.1 1900.14 1252.9 L1900.14 1256.93 Q1897.85 1257.9 1895.44 1258.41 Q1893.04 1258.92 1890.56 1258.92 Q1884.35 1258.92 1880.72 1255.31 Q1877.11 1251.7 1877.11 1245.54 Q1877.11 1239.17 1880.54 1235.45 Q1883.98 1231.7 1889.82 1231.7 Q1895.05 1231.7 1898.08 1235.08 Q1901.14 1238.43 1901.14 1244.22 M1896.88 1242.97 Q1896.83 1239.47 1894.91 1237.39 Q1893.01 1235.31 1889.86 1235.31 Q1886.3 1235.31 1884.15 1237.32 Q1882.02 1239.33 1881.69 1242.99 L1896.88 1242.97 Z" fill="#000000" fill-rule="evenodd" fill-opacity="1" /><path clip-path="url(#clip080)" d="M1928.85 1232.32 L1919.47 1244.94 L1929.33 1258.25 L1924.31 1258.25 L1916.76 1248.06 L1909.22 1258.25 L1904.19 1258.25 L1914.26 1244.68 L1905.05 1232.32 L1910.07 1232.32 L1916.95 1241.56 L1923.82 1232.32 L1928.85 1232.32 Z" fill="#000000" fill-rule="evenodd" fill-opacity="1" /><path clip-path="url(#clip080)" d="M1947.13 1245.21 Q1941.97 1245.21 1939.98 1246.39 Q1937.99 1247.58 1937.99 1250.42 Q1937.99 1252.69 1939.47 1254.03 Q1940.97 1255.35 1943.54 1255.35 Q1947.09 1255.35 1949.22 1252.85 Q1951.37 1250.33 1951.37 1246.16 L1951.37 1245.21 L1947.13 1245.21 M1955.63 1243.46 L1955.63 1258.25 L1951.37 1258.25 L1951.37 1254.31 Q1949.91 1256.67 1947.73 1257.81 Q1945.56 1258.92 1942.41 1258.92 Q1938.43 1258.92 1936.07 1256.7 Q1933.73 1254.45 1933.73 1250.7 Q1933.73 1246.33 1936.65 1244.1 Q1939.59 1241.88 1945.4 1241.88 L1951.37 1241.88 L1951.37 1241.46 Q1951.37 1238.52 1949.42 1236.93 Q1947.5 1235.31 1944.01 1235.31 Q1941.79 1235.31 1939.68 1235.84 Q1937.57 1236.37 1935.63 1237.44 L1935.63 1233.5 Q1937.97 1232.6 1940.16 1232.16 Q1942.36 1231.7 1944.45 1231.7 Q1950.07 1231.7 1952.85 1234.61 Q1955.63 1237.53 1955.63 1243.46 Z" fill="#000000" fill-rule="evenodd" fill-opacity="1" /><path clip-path="url(#clip080)" d="M1983.06 1233.32 L1983.06 1237.3 Q1981.25 1236.3 1979.42 1235.82 Q1977.62 1235.31 1975.77 1235.31 Q1971.62 1235.31 1969.33 1237.95 Q1967.04 1240.56 1967.04 1245.31 Q1967.04 1250.05 1969.33 1252.69 Q1971.62 1255.31 1975.77 1255.31 Q1977.62 1255.31 1979.42 1254.82 Q1981.25 1254.31 1983.06 1253.32 L1983.06 1257.25 Q1981.28 1258.08 1979.35 1258.5 Q1977.46 1258.92 1975.3 1258.92 Q1969.45 1258.92 1966 1255.24 Q1962.55 1251.56 1962.55 1245.31 Q1962.55 1238.96 1966.02 1235.33 Q1969.52 1231.7 1975.58 1231.7 Q1977.55 1231.7 1979.42 1232.11 Q1981.3 1232.51 1983.06 1233.32 Z" fill="#000000" fill-rule="evenodd" fill-opacity="1" /><path clip-path="url(#clip080)" d="M1994.68 1224.96 L1994.68 1232.32 L2003.45 1232.32 L2003.45 1235.63 L1994.68 1235.63 L1994.68 1249.71 Q1994.68 1252.88 1995.53 1253.78 Q1996.41 1254.68 1999.08 1254.68 L2003.45 1254.68 L2003.45 1258.25 L1999.08 1258.25 Q1994.15 1258.25 1992.27 1256.42 Q1990.4 1254.57 1990.4 1249.71 L1990.4 1235.63 L1987.27 1235.63 L1987.27 1232.32 L1990.4 1232.32 L1990.4 1224.96 L1994.68 1224.96 Z" fill="#000000" fill-rule="evenodd" fill-opacity="1" /><path clip-path="url(#clip080)" d="M2021.07 1232.32 L2025.58 1232.32 L2033.68 1254.08 L2041.78 1232.32 L2046.3 1232.32 L2036.58 1258.25 L2030.79 1258.25 L2021.07 1232.32 Z" fill="#000000" fill-rule="evenodd" fill-opacity="1" /><path clip-path="url(#clip080)" d="M2063.96 1245.21 Q2058.8 1245.21 2056.81 1246.39 Q2054.82 1247.58 2054.82 1250.42 Q2054.82 1252.69 2056.3 1254.03 Q2057.8 1255.35 2060.37 1255.35 Q2063.91 1255.35 2066.04 1252.85 Q2068.2 1250.33 2068.2 1246.16 L2068.2 1245.21 L2063.96 1245.21 M2072.46 1243.46 L2072.46 1258.25 L2068.2 1258.25 L2068.2 1254.31 Q2066.74 1256.67 2064.56 1257.81 Q2062.39 1258.92 2059.24 1258.92 Q2055.26 1258.92 2052.9 1256.7 Q2050.56 1254.45 2050.56 1250.7 Q2050.56 1246.33 2053.47 1244.1 Q2056.41 1241.88 2062.22 1241.88 L2068.2 1241.88 L2068.2 1241.46 Q2068.2 1238.52 2066.25 1236.93 Q2064.33 1235.31 2060.84 1235.31 Q2058.61 1235.31 2056.51 1235.84 Q2054.4 1236.37 2052.46 1237.44 L2052.46 1233.5 Q2054.79 1232.6 2056.99 1232.16 Q2059.19 1231.7 2061.28 1231.7 Q2066.9 1231.7 2069.68 1234.61 Q2072.46 1237.53 2072.46 1243.46 Z" fill="#000000" fill-rule="evenodd" fill-opacity="1" /><path clip-path="url(#clip080)" d="M2081.23 1222.23 L2085.49 1222.23 L2085.49 1258.25 L2081.23 1258.25 L2081.23 1222.23 Z" fill="#000000" fill-rule="evenodd" fill-opacity="1" /><path clip-path="url(#clip080)" d="M2093.96 1248.02 L2093.96 1232.32 L2098.22 1232.32 L2098.22 1247.85 Q2098.22 1251.53 2099.65 1253.39 Q2101.09 1255.21 2103.96 1255.21 Q2107.41 1255.21 2109.4 1253.02 Q2111.41 1250.82 2111.41 1247.02 L2111.41 1232.32 L2115.67 1232.32 L2115.67 1258.25 L2111.41 1258.25 L2111.41 1254.27 Q2109.86 1256.63 2107.8 1257.78 Q2105.77 1258.92 2103.06 1258.92 Q2098.59 1258.92 2096.27 1256.14 Q2093.96 1253.36 2093.96 1248.02 M2104.68 1231.7 L2104.68 1231.7 Z" fill="#000000" fill-rule="evenodd" fill-opacity="1" /><path clip-path="url(#clip080)" d="M2146.62 1244.22 L2146.62 1246.3 L2127.04 1246.3 Q2127.32 1250.7 2129.68 1253.02 Q2132.06 1255.31 2136.3 1255.31 Q2138.75 1255.31 2141.04 1254.71 Q2143.36 1254.1 2145.63 1252.9 L2145.63 1256.93 Q2143.33 1257.9 2140.93 1258.41 Q2138.52 1258.92 2136.04 1258.92 Q2129.84 1258.92 2126.21 1255.31 Q2122.59 1251.7 2122.59 1245.54 Q2122.59 1239.17 2126.02 1235.45 Q2129.47 1231.7 2135.3 1231.7 Q2140.53 1231.7 2143.57 1235.08 Q2146.62 1238.43 2146.62 1244.22 M2142.36 1242.97 Q2142.32 1239.47 2140.4 1237.39 Q2138.5 1235.31 2135.35 1235.31 Q2131.78 1235.31 2129.63 1237.32 Q2127.5 1239.33 2127.18 1242.99 L2142.36 1242.97 Z" fill="#000000" fill-rule="evenodd" fill-opacity="1" /><path clip-path="url(#clip080)" d="
M1709.63 1313.54 L1853.18 1313.54 L1853.18 1272.07 L1709.63 1272.07 L1709.63 1313.54  Z
  " fill="#333333" fill-rule="evenodd" fill-opacity="0.2"/>
<circle clip-path="url(#clip080)" cx="1781.41" cy="1292.81" r="23" fill="#e26f46" fill-rule="evenodd" fill-opacity="1" stroke="#000000" stroke-opacity="1" stroke-width="0"/>
<path clip-path="url(#clip080)" d="M1877.11 1299.86 L1877.11 1284.16 L1881.37 1284.16 L1881.37 1299.69 Q1881.37 1303.37 1882.8 1305.23 Q1884.24 1307.05 1887.11 1307.05 Q1890.56 1307.05 1892.55 1304.86 Q1894.56 1302.66 1894.56 1298.86 L1894.56 1284.16 L1898.82 1284.16 L1898.82 1310.09 L1894.56 1310.09 L1894.56 1306.11 Q1893.01 1308.47 1890.95 1309.62 Q1888.91 1310.76 1886.21 1310.76 Q1881.74 1310.76 1879.42 1307.98 Q1877.11 1305.2 1877.11 1299.86 M1887.83 1283.54 L1887.83 1283.54 Z" fill="#000000" fill-rule="evenodd" fill-opacity="1" /><path clip-path="url(#clip080)" d="M1911.72 1306.2 L1911.72 1319.95 L1907.43 1319.95 L1907.43 1284.16 L1911.72 1284.16 L1911.72 1288.1 Q1913.06 1285.78 1915.1 1284.67 Q1917.16 1283.54 1920 1283.54 Q1924.72 1283.54 1927.66 1287.29 Q1930.63 1291.04 1930.63 1297.15 Q1930.63 1303.26 1927.66 1307.01 Q1924.72 1310.76 1920 1310.76 Q1917.16 1310.76 1915.1 1309.65 Q1913.06 1308.51 1911.72 1306.2 M1926.21 1297.15 Q1926.21 1292.45 1924.26 1289.79 Q1922.34 1287.1 1918.96 1287.1 Q1915.58 1287.1 1913.64 1289.79 Q1911.72 1292.45 1911.72 1297.15 Q1911.72 1301.85 1913.64 1304.53 Q1915.58 1307.19 1918.96 1307.19 Q1922.34 1307.19 1924.26 1304.53 Q1926.21 1301.85 1926.21 1297.15 Z" fill="#000000" fill-rule="evenodd" fill-opacity="1" /><path clip-path="url(#clip080)" d="M1941.81 1306.2 L1941.81 1319.95 L1937.53 1319.95 L1937.53 1284.16 L1941.81 1284.16 L1941.81 1288.1 Q1943.15 1285.78 1945.19 1284.67 Q1947.25 1283.54 1950.1 1283.54 Q1954.82 1283.54 1957.76 1287.29 Q1960.72 1291.04 1960.72 1297.15 Q1960.72 1303.26 1957.76 1307.01 Q1954.82 1310.76 1950.1 1310.76 Q1947.25 1310.76 1945.19 1309.65 Q1943.15 1308.51 1941.81 1306.2 M1956.3 1297.15 Q1956.3 1292.45 1954.35 1289.79 Q1952.43 1287.1 1949.05 1287.1 Q1945.67 1287.1 1943.73 1289.79 Q1941.81 1292.45 1941.81 1297.15 Q1941.81 1301.85 1943.73 1304.53 Q1945.67 1307.19 1949.05 1307.19 Q1952.43 1307.19 1954.35 1304.53 Q1956.3 1301.85 1956.3 1297.15 Z" fill="#000000" fill-rule="evenodd" fill-opacity="1" /><path clip-path="url(#clip080)" d="M1989.96 1296.06 L1989.96 1298.14 L1970.37 1298.14 Q1970.65 1302.54 1973.01 1304.86 Q1975.4 1307.15 1979.63 1307.15 Q1982.09 1307.15 1984.38 1306.55 Q1986.69 1305.94 1988.96 1304.74 L1988.96 1308.77 Q1986.67 1309.74 1984.26 1310.25 Q1981.85 1310.76 1979.38 1310.76 Q1973.17 1310.76 1969.54 1307.15 Q1965.93 1303.54 1965.93 1297.38 Q1965.93 1291.01 1969.35 1287.29 Q1972.8 1283.54 1978.64 1283.54 Q1983.87 1283.54 1986.9 1286.92 Q1989.96 1290.27 1989.96 1296.06 M1985.7 1294.81 Q1985.65 1291.31 1983.73 1289.23 Q1981.83 1287.15 1978.68 1287.15 Q1975.12 1287.15 1972.97 1289.16 Q1970.84 1291.17 1970.51 1294.83 L1985.7 1294.81 Z" fill="#000000" fill-rule="evenodd" fill-opacity="1" /><path clip-path="url(#clip080)" d="M2011.97 1288.14 Q2011.25 1287.73 2010.4 1287.54 Q2009.56 1287.33 2008.54 1287.33 Q2004.93 1287.33 2002.99 1289.69 Q2001.07 1292.03 2001.07 1296.43 L2001.07 1310.09 L1996.78 1310.09 L1996.78 1284.16 L2001.07 1284.16 L2001.07 1288.19 Q2002.41 1285.83 2004.56 1284.69 Q2006.72 1283.54 2009.79 1283.54 Q2010.23 1283.54 2010.77 1283.61 Q2011.3 1283.65 2011.95 1283.77 L2011.97 1288.14 Z" fill="#000000" fill-rule="evenodd" fill-opacity="1" /><path clip-path="url(#clip080)" d="M2053.68 1296.06 L2053.68 1298.14 L2034.1 1298.14 Q2034.38 1302.54 2036.74 1304.86 Q2039.12 1307.15 2043.36 1307.15 Q2045.81 1307.15 2048.1 1306.55 Q2050.42 1305.94 2052.69 1304.74 L2052.69 1308.77 Q2050.4 1309.74 2047.99 1310.25 Q2045.58 1310.76 2043.1 1310.76 Q2036.9 1310.76 2033.27 1307.15 Q2029.65 1303.54 2029.65 1297.38 Q2029.65 1291.01 2033.08 1287.29 Q2036.53 1283.54 2042.36 1283.54 Q2047.59 1283.54 2050.63 1286.92 Q2053.68 1290.27 2053.68 1296.06 M2049.42 1294.81 Q2049.38 1291.31 2047.46 1289.23 Q2045.56 1287.15 2042.41 1287.15 Q2038.84 1287.15 2036.69 1289.16 Q2034.56 1291.17 2034.24 1294.83 L2049.42 1294.81 Z" fill="#000000" fill-rule="evenodd" fill-opacity="1" /><path clip-path="url(#clip080)" d="M2077.2 1284.92 L2077.2 1288.95 Q2075.4 1288.03 2073.45 1287.56 Q2071.51 1287.1 2069.42 1287.1 Q2066.25 1287.1 2064.65 1288.07 Q2063.08 1289.05 2063.08 1290.99 Q2063.08 1292.47 2064.21 1293.33 Q2065.35 1294.16 2068.78 1294.92 L2070.23 1295.25 Q2074.77 1296.22 2076.67 1298 Q2078.59 1299.76 2078.59 1302.93 Q2078.59 1306.55 2075.72 1308.65 Q2072.87 1310.76 2067.87 1310.76 Q2065.79 1310.76 2063.52 1310.34 Q2061.28 1309.95 2058.78 1309.14 L2058.78 1304.74 Q2061.14 1305.97 2063.43 1306.59 Q2065.72 1307.19 2067.96 1307.19 Q2070.97 1307.19 2072.59 1306.17 Q2074.21 1305.13 2074.21 1303.26 Q2074.21 1301.52 2073.03 1300.6 Q2071.88 1299.67 2067.92 1298.81 L2066.44 1298.47 Q2062.48 1297.63 2060.72 1295.92 Q2058.96 1294.18 2058.96 1291.17 Q2058.96 1287.52 2061.55 1285.53 Q2064.15 1283.54 2068.91 1283.54 Q2071.28 1283.54 2073.36 1283.88 Q2075.44 1284.23 2077.2 1284.92 Z" fill="#000000" fill-rule="evenodd" fill-opacity="1" /><path clip-path="url(#clip080)" d="M2089.59 1276.8 L2089.59 1284.16 L2098.36 1284.16 L2098.36 1287.47 L2089.59 1287.47 L2089.59 1301.55 Q2089.59 1304.72 2090.44 1305.62 Q2091.32 1306.52 2093.98 1306.52 L2098.36 1306.52 L2098.36 1310.09 L2093.98 1310.09 Q2089.05 1310.09 2087.18 1308.26 Q2085.3 1306.41 2085.3 1301.55 L2085.3 1287.47 L2082.18 1287.47 L2082.18 1284.16 L2085.3 1284.16 L2085.3 1276.8 L2089.59 1276.8 Z" fill="#000000" fill-rule="evenodd" fill-opacity="1" /><path clip-path="url(#clip080)" d="M2103.96 1284.16 L2108.22 1284.16 L2108.22 1310.09 L2103.96 1310.09 L2103.96 1284.16 M2103.96 1274.07 L2108.22 1274.07 L2108.22 1279.46 L2103.96 1279.46 L2103.96 1274.07 Z" fill="#000000" fill-rule="evenodd" fill-opacity="1" /><path clip-path="url(#clip080)" d="M2137.32 1289.14 Q2138.91 1286.27 2141.14 1284.9 Q2143.36 1283.54 2146.37 1283.54 Q2150.42 1283.54 2152.62 1286.38 Q2154.82 1289.21 2154.82 1294.44 L2154.82 1310.09 L2150.53 1310.09 L2150.53 1294.58 Q2150.53 1290.85 2149.21 1289.05 Q2147.9 1287.24 2145.19 1287.24 Q2141.88 1287.24 2139.96 1289.44 Q2138.03 1291.64 2138.03 1295.43 L2138.03 1310.09 L2133.75 1310.09 L2133.75 1294.58 Q2133.75 1290.83 2132.43 1289.05 Q2131.11 1287.24 2128.36 1287.24 Q2125.09 1287.24 2123.17 1289.46 Q2121.25 1291.66 2121.25 1295.43 L2121.25 1310.09 L2116.97 1310.09 L2116.97 1284.16 L2121.25 1284.16 L2121.25 1288.19 Q2122.71 1285.8 2124.75 1284.67 Q2126.78 1283.54 2129.58 1283.54 Q2132.41 1283.54 2134.38 1284.97 Q2136.37 1286.41 2137.32 1289.14 Z" fill="#000000" fill-rule="evenodd" fill-opacity="1" /><path clip-path="url(#clip080)" d="M2175.09 1297.05 Q2169.93 1297.05 2167.94 1298.23 Q2165.95 1299.42 2165.95 1302.26 Q2165.95 1304.53 2167.43 1305.87 Q2168.94 1307.19 2171.51 1307.19 Q2175.05 1307.19 2177.18 1304.69 Q2179.33 1302.17 2179.33 1298 L2179.33 1297.05 L2175.09 1297.05 M2183.59 1295.3 L2183.59 1310.09 L2179.33 1310.09 L2179.33 1306.15 Q2177.87 1308.51 2175.7 1309.65 Q2173.52 1310.76 2170.37 1310.76 Q2166.39 1310.76 2164.03 1308.54 Q2161.69 1306.29 2161.69 1302.54 Q2161.69 1298.17 2164.61 1295.94 Q2167.55 1293.72 2173.36 1293.72 L2179.33 1293.72 L2179.33 1293.3 Q2179.33 1290.36 2177.39 1288.77 Q2175.46 1287.15 2171.97 1287.15 Q2169.75 1287.15 2167.64 1287.68 Q2165.53 1288.21 2163.59 1289.28 L2163.59 1285.34 Q2165.93 1284.44 2168.13 1284 Q2170.33 1283.54 2172.41 1283.54 Q2178.03 1283.54 2180.81 1286.45 Q2183.59 1289.37 2183.59 1295.3 Z" fill="#000000" fill-rule="evenodd" fill-opacity="1" /><path clip-path="url(#clip080)" d="M2196.58 1276.8 L2196.58 1284.16 L2205.35 1284.16 L2205.35 1287.47 L2196.58 1287.47 L2196.58 1301.55 Q2196.58 1304.72 2197.43 1305.62 Q2198.31 1306.52 2200.97 1306.52 L2205.35 1306.52 L2205.35 1310.09 L2200.97 1310.09 Q2196.04 1310.09 2194.17 1308.26 Q2192.29 1306.41 2192.29 1301.55 L2192.29 1287.47 L2189.17 1287.47 L2189.17 1284.16 L2192.29 1284.16 L2192.29 1276.8 L2196.58 1276.8 Z" fill="#000000" fill-rule="evenodd" fill-opacity="1" /><path clip-path="url(#clip080)" d="M2233.13 1296.06 L2233.13 1298.14 L2213.54 1298.14 Q2213.82 1302.54 2216.18 1304.86 Q2218.57 1307.15 2222.8 1307.15 Q2225.26 1307.15 2227.55 1306.55 Q2229.86 1305.94 2232.13 1304.74 L2232.13 1308.77 Q2229.84 1309.74 2227.43 1310.25 Q2225.02 1310.76 2222.55 1310.76 Q2216.34 1310.76 2212.71 1307.15 Q2209.1 1303.54 2209.1 1297.38 Q2209.1 1291.01 2212.52 1287.29 Q2215.97 1283.54 2221.81 1283.54 Q2227.04 1283.54 2230.07 1286.92 Q2233.13 1290.27 2233.13 1296.06 M2228.87 1294.81 Q2228.82 1291.31 2226.9 1289.23 Q2225 1287.15 2221.85 1287.15 Q2218.29 1287.15 2216.14 1289.16 Q2214.01 1291.17 2213.68 1294.83 L2228.87 1294.81 Z" fill="#000000" fill-rule="evenodd" fill-opacity="1" /><path clip-path="url(#clip080)" d="
M1709.63 1365.38 L1853.18 1365.38 L1853.18 1323.91 L1709.63 1323.91 L1709.63 1365.38  Z
  " fill="#7f7f7f" fill-rule="evenodd" fill-opacity="0.2"/>
<circle clip-path="url(#clip080)" cx="1781.41" cy="1344.65" r="23" fill="#3da44d" fill-rule="evenodd" fill-opacity="1" stroke="#000000" stroke-opacity="1" stroke-width="0"/>
<path clip-path="url(#clip080)" d="M1877.11 1325.91 L1881.37 1325.91 L1881.37 1361.93 L1877.11 1361.93 L1877.11 1325.91 Z" fill="#000000" fill-rule="evenodd" fill-opacity="1" /><path clip-path="url(#clip080)" d="M1900.33 1338.99 Q1896.9 1338.99 1894.91 1341.67 Q1892.92 1344.33 1892.92 1348.99 Q1892.92 1353.64 1894.89 1356.32 Q1896.88 1358.99 1900.33 1358.99 Q1903.73 1358.99 1905.72 1356.3 Q1907.71 1353.62 1907.71 1348.99 Q1907.71 1344.38 1905.72 1341.7 Q1903.73 1338.99 1900.33 1338.99 M1900.33 1335.38 Q1905.88 1335.38 1909.05 1338.99 Q1912.23 1342.6 1912.23 1348.99 Q1912.23 1355.35 1909.05 1358.99 Q1905.88 1362.6 1900.33 1362.6 Q1894.75 1362.6 1891.58 1358.99 Q1888.43 1355.35 1888.43 1348.99 Q1888.43 1342.6 1891.58 1338.99 Q1894.75 1335.38 1900.33 1335.38 Z" fill="#000000" fill-rule="evenodd" fill-opacity="1" /><path clip-path="url(#clip080)" d="M1916.81 1336 L1921.07 1336 L1926.39 1356.23 L1931.69 1336 L1936.72 1336 L1942.04 1356.23 L1947.34 1336 L1951.6 1336 L1944.82 1361.93 L1939.79 1361.93 L1934.22 1340.68 L1928.61 1361.93 L1923.59 1361.93 L1916.81 1336 Z" fill="#000000" fill-rule="evenodd" fill-opacity="1" /><path clip-path="url(#clip080)" d="M1980.23 1347.9 L1980.23 1349.98 L1960.65 1349.98 Q1960.93 1354.38 1963.29 1356.7 Q1965.67 1358.99 1969.91 1358.99 Q1972.36 1358.99 1974.66 1358.39 Q1976.97 1357.78 1979.24 1356.58 L1979.24 1360.61 Q1976.95 1361.58 1974.54 1362.09 Q1972.13 1362.6 1969.66 1362.6 Q1963.45 1362.6 1959.82 1358.99 Q1956.21 1355.38 1956.21 1349.22 Q1956.21 1342.85 1959.63 1339.13 Q1963.08 1335.38 1968.91 1335.38 Q1974.15 1335.38 1977.18 1338.76 Q1980.23 1342.11 1980.23 1347.9 M1975.97 1346.65 Q1975.93 1343.15 1974.01 1341.07 Q1972.11 1338.99 1968.96 1338.99 Q1965.4 1338.99 1963.24 1341 Q1961.11 1343.01 1960.79 1346.67 L1975.97 1346.65 Z" fill="#000000" fill-rule="evenodd" fill-opacity="1" /><path clip-path="url(#clip080)" d="M2002.25 1339.98 Q2001.53 1339.57 2000.67 1339.38 Q1999.84 1339.17 1998.82 1339.17 Q1995.21 1339.17 1993.27 1341.53 Q1991.34 1343.87 1991.34 1348.27 L1991.34 1361.93 L1987.06 1361.93 L1987.06 1336 L1991.34 1336 L1991.34 1340.03 Q1992.69 1337.67 1994.84 1336.53 Q1996.99 1335.38 2000.07 1335.38 Q2000.51 1335.38 2001.04 1335.45 Q2001.58 1335.49 2002.22 1335.61 L2002.25 1339.98 Z" fill="#000000" fill-rule="evenodd" fill-opacity="1" /><path clip-path="url(#clip080)" d="M2043.96 1347.9 L2043.96 1349.98 L2024.38 1349.98 Q2024.66 1354.38 2027.02 1356.7 Q2029.4 1358.99 2033.64 1358.99 Q2036.09 1358.99 2038.38 1358.39 Q2040.7 1357.78 2042.97 1356.58 L2042.97 1360.61 Q2040.67 1361.58 2038.27 1362.09 Q2035.86 1362.6 2033.38 1362.6 Q2027.18 1362.6 2023.54 1358.99 Q2019.93 1355.38 2019.93 1349.22 Q2019.93 1342.85 2023.36 1339.13 Q2026.81 1335.38 2032.64 1335.38 Q2037.87 1335.38 2040.9 1338.76 Q2043.96 1342.11 2043.96 1347.9 M2039.7 1346.65 Q2039.65 1343.15 2037.73 1341.07 Q2035.84 1338.99 2032.69 1338.99 Q2029.12 1338.99 2026.97 1341 Q2024.84 1343.01 2024.52 1346.67 L2039.7 1346.65 Z" fill="#000000" fill-rule="evenodd" fill-opacity="1" /><path clip-path="url(#clip080)" d="M2067.48 1336.76 L2067.48 1340.79 Q2065.67 1339.87 2063.73 1339.4 Q2061.78 1338.94 2059.7 1338.94 Q2056.53 1338.94 2054.93 1339.91 Q2053.36 1340.89 2053.36 1342.83 Q2053.36 1344.31 2054.49 1345.17 Q2055.63 1346 2059.05 1346.76 L2060.51 1347.09 Q2065.05 1348.06 2066.95 1349.84 Q2068.87 1351.6 2068.87 1354.77 Q2068.87 1358.39 2066 1360.49 Q2063.15 1362.6 2058.15 1362.6 Q2056.07 1362.6 2053.8 1362.18 Q2051.55 1361.79 2049.05 1360.98 L2049.05 1356.58 Q2051.41 1357.81 2053.71 1358.43 Q2056 1359.03 2058.24 1359.03 Q2061.25 1359.03 2062.87 1358.01 Q2064.49 1356.97 2064.49 1355.1 Q2064.49 1353.36 2063.31 1352.44 Q2062.15 1351.51 2058.2 1350.65 L2056.72 1350.31 Q2052.76 1349.47 2051 1347.76 Q2049.24 1346.02 2049.24 1343.01 Q2049.24 1339.36 2051.83 1337.37 Q2054.42 1335.38 2059.19 1335.38 Q2061.55 1335.38 2063.64 1335.72 Q2065.72 1336.07 2067.48 1336.76 Z" fill="#000000" fill-rule="evenodd" fill-opacity="1" /><path clip-path="url(#clip080)" d="M2079.86 1328.64 L2079.86 1336 L2088.64 1336 L2088.64 1339.31 L2079.86 1339.31 L2079.86 1353.39 Q2079.86 1356.56 2080.72 1357.46 Q2081.6 1358.36 2084.26 1358.36 L2088.64 1358.36 L2088.64 1361.93 L2084.26 1361.93 Q2079.33 1361.93 2077.46 1360.1 Q2075.58 1358.25 2075.58 1353.39 L2075.58 1339.31 L2072.46 1339.31 L2072.46 1336 L2075.58 1336 L2075.58 1328.64 L2079.86 1328.64 Z" fill="#000000" fill-rule="evenodd" fill-opacity="1" /><path clip-path="url(#clip080)" d="M2094.24 1336 L2098.5 1336 L2098.5 1361.93 L2094.24 1361.93 L2094.24 1336 M2094.24 1325.91 L2098.5 1325.91 L2098.5 1331.3 L2094.24 1331.3 L2094.24 1325.91 Z" fill="#000000" fill-rule="evenodd" fill-opacity="1" /><path clip-path="url(#clip080)" d="M2127.59 1340.98 Q2129.19 1338.11 2131.41 1336.74 Q2133.64 1335.38 2136.65 1335.38 Q2140.7 1335.38 2142.9 1338.22 Q2145.09 1341.05 2145.09 1346.28 L2145.09 1361.93 L2140.81 1361.93 L2140.81 1346.42 Q2140.81 1342.69 2139.49 1340.89 Q2138.17 1339.08 2135.46 1339.08 Q2132.15 1339.08 2130.23 1341.28 Q2128.31 1343.48 2128.31 1347.27 L2128.31 1361.93 L2124.03 1361.93 L2124.03 1346.42 Q2124.03 1342.67 2122.71 1340.89 Q2121.39 1339.08 2118.64 1339.08 Q2115.37 1339.08 2113.45 1341.3 Q2111.53 1343.5 2111.53 1347.27 L2111.53 1361.93 L2107.25 1361.93 L2107.25 1336 L2111.53 1336 L2111.53 1340.03 Q2112.99 1337.64 2115.02 1336.51 Q2117.06 1335.38 2119.86 1335.38 Q2122.69 1335.38 2124.65 1336.81 Q2126.65 1338.25 2127.59 1340.98 Z" fill="#000000" fill-rule="evenodd" fill-opacity="1" /><path clip-path="url(#clip080)" d="M2165.37 1348.89 Q2160.21 1348.89 2158.22 1350.07 Q2156.23 1351.26 2156.23 1354.1 Q2156.23 1356.37 2157.71 1357.71 Q2159.21 1359.03 2161.78 1359.03 Q2165.33 1359.03 2167.46 1356.53 Q2169.61 1354.01 2169.61 1349.84 L2169.61 1348.89 L2165.37 1348.89 M2173.87 1347.14 L2173.87 1361.93 L2169.61 1361.93 L2169.61 1357.99 Q2168.15 1360.35 2165.97 1361.49 Q2163.8 1362.6 2160.65 1362.6 Q2156.67 1362.6 2154.31 1360.38 Q2151.97 1358.13 2151.97 1354.38 Q2151.97 1350.01 2154.89 1347.78 Q2157.83 1345.56 2163.64 1345.56 L2169.61 1345.56 L2169.61 1345.14 Q2169.61 1342.2 2167.66 1340.61 Q2165.74 1338.99 2162.25 1338.99 Q2160.02 1338.99 2157.92 1339.52 Q2155.81 1340.05 2153.87 1341.12 L2153.87 1337.18 Q2156.21 1336.28 2158.4 1335.84 Q2160.6 1335.38 2162.69 1335.38 Q2168.31 1335.38 2171.09 1338.29 Q2173.87 1341.21 2173.87 1347.14 Z" fill="#000000" fill-rule="evenodd" fill-opacity="1" /><path clip-path="url(#clip080)" d="M2186.85 1328.64 L2186.85 1336 L2195.63 1336 L2195.63 1339.31 L2186.85 1339.31 L2186.85 1353.39 Q2186.85 1356.56 2187.71 1357.46 Q2188.59 1358.36 2191.25 1358.36 L2195.63 1358.36 L2195.63 1361.93 L2191.25 1361.93 Q2186.32 1361.93 2184.45 1360.1 Q2182.57 1358.25 2182.57 1353.39 L2182.57 1339.31 L2179.45 1339.31 L2179.45 1336 L2182.57 1336 L2182.57 1328.64 L2186.85 1328.64 Z" fill="#000000" fill-rule="evenodd" fill-opacity="1" /><path clip-path="url(#clip080)" d="M2223.4 1347.9 L2223.4 1349.98 L2203.82 1349.98 Q2204.1 1354.38 2206.46 1356.7 Q2208.84 1358.99 2213.08 1358.99 Q2215.53 1358.99 2217.83 1358.39 Q2220.14 1357.78 2222.41 1356.58 L2222.41 1360.61 Q2220.12 1361.58 2217.71 1362.09 Q2215.3 1362.6 2212.83 1362.6 Q2206.62 1362.6 2202.99 1358.99 Q2199.38 1355.38 2199.38 1349.22 Q2199.38 1342.85 2202.8 1339.13 Q2206.25 1335.38 2212.08 1335.38 Q2217.32 1335.38 2220.35 1338.76 Q2223.4 1342.11 2223.4 1347.9 M2219.14 1346.65 Q2219.1 1343.15 2217.18 1341.07 Q2215.28 1338.99 2212.13 1338.99 Q2208.57 1338.99 2206.41 1341 Q2204.28 1343.01 2203.96 1346.67 L2219.14 1346.65 Z" fill="#000000" fill-rule="evenodd" fill-opacity="1" /></svg>
